<svg width="23" height="23" viewBox="0 0 23 23" fill="none" xmlns="http://www.w3.org/2000/svg">
<g clip-path="url(#clip0_183_4316)">
<path d="M20.8438 0C22.0346 0 23 0.965371 23 2.15625V15.0938C23 16.2846 22.0346 17.25 20.8438 17.25H7.90625C6.71537 17.25 5.75 16.2846 5.75 15.0938V2.15625C5.75 0.965371 6.71537 0 7.90625 0H20.8438ZM7.90625 18.6875C5.92466 18.6875 4.3125 17.0753 4.3125 15.0938V5.75H2.15625C0.965371 5.75 0 6.71537 0 7.90625V20.8438C0 22.0346 0.965371 23 2.15625 23H15.0938C16.2846 23 17.25 22.0346 17.25 20.8438V18.6875H7.90625Z" fill="white"/>
</g>
<defs>
<clipPath id="clip0_183_4316">
<rect width="23" height="23" fill="white"/>
</clipPath>
</defs>
</svg>
