<svg width="22" height="36" viewBox="0 0 22 36" fill="none" xmlns="http://www.w3.org/2000/svg">
<path d="M21.12 23.96C21.12 26.3867 20.36 28.3467 18.84 29.84C17.3467 31.3067 15.3733 32.1867 12.92 32.48V36H10.12V32.52C7.85333 32.36 5.90667 31.72 4.28 30.6C2.68 29.48 1.52 27.96 0.8 26.04L6.32 22.84C7.17333 24.7867 8.44 25.9067 10.12 26.2V20.68C10.0667 20.6533 9.97333 20.6267 9.84 20.6C9.73333 20.5467 9.65333 20.5067 9.6 20.48C8.74667 20.1333 8.02667 19.8267 7.44 19.56C6.85333 19.2667 6.18667 18.8667 5.44 18.36C4.69333 17.8533 4.08 17.32 3.6 16.76C3.14667 16.1733 2.76 15.4533 2.44 14.6C2.12 13.7467 1.96 12.8 1.96 11.76C1.96 9.30666 2.74667 7.37333 4.32 5.96C5.89333 4.52 7.82667 3.69333 10.12 3.48V-4.76837e-07H12.92V3.56C16.68 4.04 19.3067 5.97333 20.8 9.36L15.4 12.52C14.8933 11.1867 14.0667 10.32 12.92 9.92V15.32C13.0533 15.3733 13.4933 15.56 14.24 15.88C14.9867 16.1733 15.4667 16.3733 15.68 16.48C15.92 16.5867 16.36 16.8133 17 17.16C17.64 17.48 18.0933 17.76 18.36 18C18.6267 18.24 18.9733 18.5867 19.4 19.04C19.8533 19.4933 20.1733 19.9467 20.36 20.4C20.5467 20.8267 20.72 21.3467 20.88 21.96C21.04 22.5733 21.12 23.24 21.12 23.96ZM8.36 11.8C8.36 12.6 8.94667 13.3333 10.12 14V9.8C8.94667 10.0933 8.36 10.76 8.36 11.8ZM12.92 26.12C14.12 25.8 14.72 25.1067 14.72 24.04C14.72 23.16 14.12 22.4267 12.92 21.84V26.12Z" fill="#00AEEF"/>
</svg>
