<svg width="19" height="24" viewBox="0 0 19 24" fill="none" xmlns="http://www.w3.org/2000/svg">
<path d="M0 2.4C0 1.08 1.06875 0 2.375 0H16.625C17.2549 0 17.859 0.252856 18.3044 0.702944C18.7498 1.15303 19 1.76348 19 2.4V21.6C19 22.2365 18.7498 22.847 18.3044 23.2971C17.859 23.7471 17.2549 24 16.625 24H2.375C1.74511 24 1.14102 23.7471 0.695621 23.2971C0.250222 22.847 0 22.2365 0 21.6V2.4ZM3.5625 3.6V6H15.4375V3.6H3.5625ZM3.5625 8.4V10.8H5.9375V8.4H3.5625ZM8.3125 8.4V10.8H10.6875V8.4H8.3125ZM13.0625 8.4V10.8H15.4375V8.4H13.0625ZM3.5625 13.2V15.6H5.9375V13.2H3.5625ZM8.3125 13.2V15.6H10.6875V13.2H8.3125ZM13.0625 13.2V20.4H15.4375V13.2H13.0625ZM3.5625 18V20.4H5.9375V18H3.5625ZM8.3125 18V20.4H10.6875V18H8.3125Z" fill="#B0CAD1"/>
</svg>
