<svg width="79" height="59" viewBox="0 0 79 59" fill="none" xmlns="http://www.w3.org/2000/svg">
<path d="M0.00199511 58.7345C0.00112434 57.9791 0.310245 55.4792 0.535781 54.4081C0.745635 53.4129 0.925886 52.6458 1.02734 52.3165C1.08306 52.1363 1.19235 51.7671 1.27028 51.4963C1.47579 50.7835 1.99999 49.352 2.26121 48.7895C2.32435 48.6541 2.55466 48.156 2.77323 47.6823C4.32674 44.3164 7.07698 40.7362 9.96008 38.328C11.1866 37.3036 12.5127 36.3435 13.6592 35.6505C15.0337 34.8193 16.4225 34.131 17.8406 33.578C18.337 33.3843 18.798 33.1997 18.866 33.1674C18.9334 33.1352 19.2656 33.0268 19.6039 32.9267C19.9422 32.8265 20.3667 32.6955 20.547 32.635C22.3874 32.0189 25.873 31.5247 28.3795 31.5247C30.8864 31.5247 34.3717 32.0189 36.212 32.635C36.3923 32.6955 36.8168 32.8265 37.1551 32.9267C37.4934 33.0268 37.8256 33.1352 37.893 33.1674C37.9605 33.1997 38.422 33.3847 38.9184 33.578C41.711 34.6673 44.2444 36.1943 46.7988 38.328C49.6819 40.7361 52.4323 44.3164 53.9857 47.6823C54.2042 48.156 54.4345 48.6541 54.4977 48.7895C54.7594 49.352 55.2836 50.7831 55.4886 51.4963C55.5666 51.7671 55.6758 52.1358 55.7316 52.3165C55.8321 52.6418 55.9771 53.26 56.2131 54.3671C56.446 55.4608 56.7573 57.9591 56.7569 58.7345V59.001H0V58.7345H0.00199511ZM54.0895 40.199C54.3777 37.2414 55.5158 34.8085 57.5739 32.75C59.3245 30.9993 61.2337 29.9674 63.7311 29.4219C64.7255 29.2047 67.3295 29.2047 68.3239 29.4219C70.8213 29.9675 72.7304 30.9993 74.4811 32.75C76.5392 34.8081 77.6777 37.2414 77.9655 40.199L78.0234 40.7937H54.032L54.0899 40.199H54.0895ZM26.9426 27.4314C25.5272 27.2947 23.8035 26.8018 22.4089 26.1357C18.9006 24.4599 16.102 21.1052 15.1027 17.378C14.7279 15.9799 14.653 15.3717 14.653 13.7277C14.653 12.0837 14.7279 11.4755 15.1027 10.0774C16.3313 5.49548 20.1485 1.67848 24.7304 0.449757C26.1284 0.074889 26.7367 0 28.3807 0C30.0247 0 30.6329 0.0748867 32.0309 0.449757C36.6129 1.67836 40.4299 5.49548 41.6586 10.0774C42.0335 11.4755 42.1084 12.0837 42.1084 13.7277C42.1084 15.3717 42.0335 15.9799 41.6586 17.378C40.4256 21.9761 36.5729 25.8153 31.9896 27.0134C30.4322 27.4205 28.493 27.5812 26.9426 27.431V27.4314ZM64.8786 27.3896C63.7523 27.1515 62.7783 26.6307 61.9646 25.8314C59.1176 23.0363 59.8729 18.2753 63.4432 16.5129C64.3714 16.0549 65.001 15.9069 66.0268 15.9069C67.0525 15.9069 67.6822 16.0545 68.6104 16.5129C70.0877 17.2422 71.1879 18.5797 71.6494 20.2072C71.8562 20.9374 71.8593 22.425 71.6551 23.16C71.0934 25.1824 69.5156 26.7707 67.538 27.3049C66.8636 27.4869 65.5379 27.5296 64.8783 27.3898L64.8786 27.3896Z" fill="white" fill-opacity="0.8"/>
</svg>
