<svg width="23" height="20" viewBox="0 0 23 20" fill="none" xmlns="http://www.w3.org/2000/svg">
<path d="M7.66695 0.00021549C3.56522 0.00021549 0.214095 1.54855 0.00923023 3.49524C0.124018 4.58522 1.32554 5.34226 2.10554 5.73215C3.49178 6.40658 5.47388 6.85061 7.6672 6.85061C8.28639 6.85061 8.88822 6.81023 9.46404 6.74378C10.8906 5.43003 12.792 4.58492 14.8971 4.48229C15.1047 4.1684 15.2882 3.8323 15.3249 3.512C14.9093 0.649344 9.73589 -0.00948381 7.6672 0.000102556L7.66695 0.00021549ZM15.3335 5.26332C11.0994 5.26332 7.66695 8.56229 7.66695 12.6317C7.66695 16.701 11.0994 20 15.3335 20C19.5675 20 23 16.701 23 12.6317C23 8.56229 19.5675 5.26332 15.3335 5.26332ZM0.00874119 5.60052V6.67786C0.0927796 7.45304 0.805365 8.24951 2.10506 8.88169C3.41296 9.51791 5.25337 9.94507 7.29903 9.99187C7.56986 9.23065 7.95811 8.51952 8.43693 7.87832C8.1831 7.89025 7.92697 7.89465 7.66685 7.89465C5.32358 7.89465 3.19558 7.44107 1.60893 6.66939C0.989743 6.36816 0.446584 6.006 0.00879005 5.60032L0.00874119 5.60052ZM0.00874119 8.75834V9.83567C0.0927796 10.6109 0.805365 11.4073 2.10506 12.0395C3.31997 12.6304 4.9913 13.048 6.86246 13.1414C6.85157 12.9722 6.84527 12.8033 6.84527 12.6315C6.84527 12.0856 6.90142 11.5521 7.0078 11.0361C4.92752 10.9577 3.04419 10.5172 1.60847 9.81913C0.989286 9.5179 0.446126 9.16402 0.00833235 8.75834H0.00874119ZM0.00874119 11.9161V12.9935C0.0927796 13.7687 0.805365 14.5651 2.10506 15.1973C4.02927 16.1025 6.03068 16.3033 7.76107 16.3158C7.41251 15.6551 7.15068 14.9431 6.9996 14.1942C4.92275 14.1149 3.04264 13.6744 1.60908 12.9772C0.98989 12.676 0.44673 12.3221 0.00893665 11.9164L0.00874119 11.9161ZM0.0001466 15.074V16.3158C0.0001466 18.3506 3.4338 19.9998 7.66667 19.9998C8.85923 19.9998 9.98071 19.8635 10.9865 19.6298C9.96941 19.045 9.08532 18.2701 8.40232 17.3437C8.15958 17.3547 7.91568 17.3685 7.66643 17.3685C5.32315 17.3685 3.19515 16.9067 1.6085 16.135C0.987212 15.8328 0.438283 15.4815 0 15.0742L0.0001466 15.074Z" fill="#B0CAD1"/>
</svg>
