<svg width="68" height="59" viewBox="0 0 68 59" fill="none" xmlns="http://www.w3.org/2000/svg">
<path d="M22.6675 0.000635695C10.5406 0.000635695 0.632975 4.56823 0.0272894 10.311C0.366661 13.5264 3.919 15.7597 6.22509 16.9099C10.3235 18.8994 16.1836 20.2093 22.6682 20.2093C24.4989 20.2093 26.2782 20.0902 27.9806 19.8941C32.1982 16.0186 37.8199 13.5255 44.0436 13.2228C44.6574 12.2968 45.2 11.3053 45.3085 10.3604C44.0797 1.91556 28.7844 -0.0279772 22.6682 0.00030254L22.6675 0.000635695ZM45.3338 15.5268C32.8156 15.5268 22.6675 25.2588 22.6675 37.2634C22.6675 49.268 32.8157 59 45.3338 59C57.8518 59 68 49.268 68 37.2634C68 25.2588 57.8518 15.5268 45.3338 15.5268ZM0.0258435 16.5215V19.6997C0.274305 21.9865 2.38108 24.336 6.22364 26.201C10.0905 28.0778 15.5317 29.338 21.5797 29.476C22.3804 27.2304 23.5283 25.1326 24.944 23.241C24.1935 23.2762 23.4363 23.2892 22.6672 23.2892C15.7393 23.2892 9.4478 21.9512 4.75684 19.6747C2.9262 18.7861 1.32033 17.7177 0.025988 16.5209L0.0258435 16.5215ZM0.0258435 25.8371V29.0152C0.274305 31.302 2.38108 33.6516 6.22364 35.5165C9.81555 37.2596 14.7569 38.4916 20.289 38.7672C20.2568 38.2679 20.2382 37.7697 20.2382 37.2628C20.2382 35.6524 20.4042 34.0787 20.7187 32.5566C14.5683 32.3254 9.00021 31.0257 4.75549 28.9664C2.92484 28.0778 1.31898 27.0339 0.0246348 25.8371H0.0258435ZM0.0258435 35.1526V38.3308C0.274305 40.6176 2.38108 42.9671 6.22364 44.8321C11.9126 47.5023 17.8298 48.0947 22.9458 48.1315C21.9153 46.1826 21.1412 44.0821 20.6945 41.8728C14.5542 41.6389 8.99563 40.3393 4.75728 38.2827C2.92663 37.3941 1.32077 36.3501 0.0264214 35.1533L0.0258435 35.1526ZM0.000433427 44.4682V48.1315C0.000433427 54.1342 10.1521 58.9996 22.6667 58.9996C26.1925 58.9996 29.5082 58.5972 32.4817 57.9079C29.4748 56.1827 26.8609 53.8969 24.8417 51.164C24.124 51.1965 23.4029 51.2371 22.666 51.2371C15.738 51.2371 9.44653 49.8746 4.75557 47.5981C2.91871 46.7068 1.29579 45.6704 0 44.4688L0.000433427 44.4682Z" fill="white" fill-opacity="0.8"/>
</svg>
