<svg width="30" height="30" viewBox="0 0 30 30" fill="none" xmlns="http://www.w3.org/2000/svg">
<path d="M27.1372 11.6127L22.1372 6.61273C22.0206 6.49618 21.8823 6.40373 21.73 6.34066C21.5777 6.27758 21.4145 6.24512 21.2497 6.24512C20.9168 6.24512 20.5976 6.37735 20.3622 6.61273C20.1268 6.84811 19.9946 7.16735 19.9946 7.50023C19.9946 7.83311 20.1268 8.15235 20.3622 8.38773L23.2372 11.2502H8.74969C8.41817 11.2502 8.10022 11.3819 7.8658 11.6163C7.63138 11.8508 7.49969 12.1687 7.49969 12.5002C7.49969 12.8318 7.63138 13.1497 7.8658 13.3841C8.10022 13.6185 8.41817 13.7502 8.74969 13.7502H26.2497C26.4965 13.749 26.7374 13.6747 26.942 13.5368C27.1467 13.3989 27.3059 13.2035 27.3997 12.9752C27.4954 12.7476 27.5216 12.4967 27.4748 12.2542C27.4281 12.0117 27.3106 11.7885 27.1372 11.6127ZM21.2497 16.2502H3.74969C3.5029 16.2515 3.26201 16.3257 3.05736 16.4636C2.85271 16.6015 2.69346 16.797 2.59969 17.0252C2.50396 17.2529 2.47781 17.5038 2.52453 17.7462C2.57124 17.9887 2.68874 18.212 2.86219 18.3877L7.86219 23.3877C7.97839 23.5049 8.11664 23.5979 8.26897 23.6613C8.42129 23.7248 8.58467 23.7575 8.74969 23.7575C8.9147 23.7575 9.07808 23.7248 9.23041 23.6613C9.38273 23.5979 9.52098 23.5049 9.63719 23.3877C9.75435 23.2715 9.84734 23.1333 9.9108 22.981C9.97426 22.8286 10.0069 22.6652 10.0069 22.5002C10.0069 22.3352 9.97426 22.1718 9.9108 22.0195C9.84734 21.8672 9.75435 21.7289 9.63719 21.6127L6.76219 18.7502H21.2497C21.5812 18.7502 21.8991 18.6185 22.1336 18.3841C22.368 18.1497 22.4997 17.8318 22.4997 17.5002C22.4997 17.1687 22.368 16.8508 22.1336 16.6163C21.8991 16.3819 21.5812 16.2502 21.2497 16.2502Z" fill="#00AEEF"/>
</svg>
