<svg width="21" height="21" viewBox="0 0 21 21" fill="none" xmlns="http://www.w3.org/2000/svg">
<path d="M20.7212 6.07477C20.3937 5.31661 19.4908 4.74114 18.7118 4.79567C17.9329 4.85032 17.0322 4.54574 16.6333 4.16556C16.2344 3.78538 15.911 2.88647 15.9404 2.10311C15.97 1.31975 15.3674 0.441924 14.5969 0.135287C13.8264 -0.171343 12.785 0.0617443 12.2727 0.647749C11.7604 1.23361 10.9018 1.6642 10.3558 1.68104C9.80993 1.69788 8.94076 1.28825 8.41164 0.717057C7.88252 0.145713 6.83069 -0.0579364 6.07279 0.269628C5.3149 0.597193 4.73539 1.50038 4.79002 2.27965C4.84464 3.05888 4.54017 3.95989 4.16012 4.35893C3.78007 4.75798 2.88146 5.07722 2.10261 5.05202C1.32365 5.02667 0.441841 5.62734 0.135309 6.39809C-0.171362 7.169 0.0617916 8.21061 0.647446 8.72307C1.23325 9.23553 1.66366 10.0946 1.68053 10.6386C1.6974 11.1825 1.29009 12.0541 0.716881 12.5834C0.14367 13.1127 -0.0620846 14.1628 0.269605 14.9252C0.60132 15.6876 1.49993 16.2631 2.27893 16.2084C3.0579 16.1538 3.9586 16.4583 4.35751 16.8385C4.75642 17.2187 5.07983 18.1134 5.05036 18.8967C5.02089 19.6801 5.62357 20.5581 6.39612 20.8647C7.16879 21.1713 8.20802 20.9383 8.72031 20.3523C9.2326 19.7662 10.0892 19.3357 10.635 19.3273C11.1808 19.319 12.05 19.7243 12.5834 20.2955C13.1167 20.8667 14.1664 21.0622 14.9244 20.7345C15.6823 20.4069 16.2618 19.5079 16.2072 18.7287C16.1526 17.9495 16.4571 17.0485 16.8371 16.6494C17.217 16.2505 18.1136 15.9313 18.8967 15.9628C19.6798 15.9943 20.5575 15.3894 20.864 14.6165C21.1705 13.8436 20.9416 12.804 20.3517 12.2873C19.7617 11.7706 19.3314 10.9221 19.3166 10.3697C19.3019 9.81742 19.7092 8.95425 20.2845 8.42495C20.5712 8.11407 20.7643 7.72864 20.8414 7.31287C20.9187 6.89694 20.877 6.46785 20.7212 6.07477ZM12.1131 14.253C11.1182 14.6833 9.99319 14.7006 8.9856 14.3008C7.97801 13.9011 7.17048 13.1172 6.74078 12.1218C6.31109 11.1263 6.29441 10.0009 6.6945 8.99312C7.09447 7.98534 7.87842 7.17798 8.87386 6.74855C9.86915 6.31916 10.9942 6.30303 12.0013 6.70372C13.0086 7.10427 13.8155 7.88894 14.2441 8.88468C14.6728 9.87855 14.6899 11.0019 14.2915 12.0084C13.8932 13.0147 13.112 13.8219 12.1194 14.253L12.1131 14.253Z" fill="#B0CAD1"/>
</svg>
