<svg width="56" height="56" viewBox="0 0 56 56" fill="none" xmlns="http://www.w3.org/2000/svg">
<path d="M28 33.5C35.5939 33.5 41.75 26.1127 41.75 17C41.75 7.8873 35.5939 0.5 28 0.5C20.4061 0.5 14.25 7.8873 14.25 17C14.25 26.1127 20.4061 33.5 28 33.5Z" fill="white" fill-opacity="0.8"/>
<path d="M54.9506 47.5251C52.4756 42.5751 47.8006 38.4501 41.7506 35.9751C40.1006 35.4251 38.1756 35.4251 36.8006 36.2501C34.0506 37.9001 31.3006 38.7251 28.0006 38.7251C24.7006 38.7251 21.9506 37.9001 19.2006 36.2501C17.8256 35.7001 15.9006 35.4251 14.2506 36.2501C8.2006 38.7251 3.5256 42.8501 1.0506 47.8001C-0.874404 51.3751 2.1506 55.5001 6.2756 55.5001H49.7256C53.8506 55.5001 56.8756 51.3751 54.9506 47.5251Z" fill="white" fill-opacity="0.8"/>
</svg>
