<svg width="27" height="31" viewBox="0 0 27 31" fill="none" xmlns="http://www.w3.org/2000/svg">
<path d="M1.99522 13.7684C2.45592 10.8383 4.03029 8.26301 6.42835 6.5174C8.21092 5.21946 10.2898 4.49612 12.4432 4.3995L10.9985 5.84425L12.3141 7.15988L15.8943 3.57994L12.3143 0L10.9987 1.31564L12.23 2.5469C9.76079 2.68201 7.37957 3.52324 5.33339 5.01318C2.53355 7.05153 0.695407 10.0583 0.157427 13.4792C-0.326081 16.555 0.312692 19.7028 1.95616 22.3428L3.53557 21.3596C2.12825 19.0988 1.58114 16.4029 1.99534 13.7684L1.99522 13.7684Z" fill="#B0CAD1"/>
<path d="M4.70184 22.9125L3.31641 24.1544C4.02517 24.9451 4.82897 25.6466 5.7054 26.2397L6.74819 24.6988C5.99758 24.1909 5.30894 23.59 4.70184 22.9125V22.9125Z" fill="#B0CAD1"/>
<path d="M24.239 8.6573L22.6596 9.6405C24.0669 11.9012 24.614 14.597 24.1998 17.2317C23.7391 20.1617 22.1648 22.737 19.7667 24.4826C17.9844 25.7803 15.9052 26.5037 13.7518 26.6005L15.1966 25.1558L13.881 23.8401L10.3008 27.4203L13.8807 31L15.1964 29.6844L13.9655 28.4536C16.4345 28.3182 18.8155 27.4766 20.8615 25.9868C23.6614 23.9485 25.4995 20.9417 26.0375 17.5208C26.521 14.445 25.8822 11.2972 24.2388 8.65724L24.239 8.6573Z" fill="#B0CAD1"/>
<path d="M21.4917 8.08745L22.8771 6.84558C22.1683 6.05489 21.3645 5.35344 20.4881 4.76028L19.4453 6.3012C20.1959 6.80907 20.8846 7.40999 21.4917 8.08751V8.08745Z" fill="#B0CAD1"/>
<path d="M20.2596 15.5176C20.2596 11.4898 16.9947 8.22467 12.9667 8.22467C8.9388 8.22467 5.67383 11.4896 5.67383 15.5176C5.67383 19.5455 8.9388 22.8105 12.9667 22.8105C16.9947 22.8105 20.2596 19.5455 20.2596 15.5176ZM9.33956 18.3865L10.3289 16.9522C10.9059 17.5949 12.2251 18.0733 13.1319 18.0897C13.8903 18.1061 14.5993 17.7105 14.5993 17.1169C14.5993 16.5564 14.1377 16.3256 12.9835 16.2598C11.4501 16.1444 9.62 15.5838 9.62 13.737C9.62 12.2471 10.8426 11.5244 12.0885 11.2885V10.158H13.8458V11.2386C14.739 11.3361 15.4826 11.6271 16.2153 12.2699L15.0941 13.5891C14.5171 13.0449 13.8575 12.8633 13.0825 12.8633C12.1264 12.8633 11.5985 13.1603 11.5985 13.6713C11.5985 14.1989 12.0767 14.4956 13.1155 14.5616C14.6491 14.6604 16.5946 15.0066 16.5946 17.1666C16.5946 18.4384 15.6739 19.5536 13.8459 19.7905V20.8776H12.0887V19.7783C11.1447 19.6543 10.2151 19.2988 9.33956 18.3865V18.3865Z" fill="#B0CAD1"/>
</svg>
