<svg width="85" height="85" viewBox="0 0 85 85" fill="none" xmlns="http://www.w3.org/2000/svg">
<path d="M73.6673 73.6667H62.334V31.1667C62.334 29.6027 63.6033 28.3333 65.1673 28.3333H70.834C72.398 28.3333 73.6673 29.6027 73.6673 31.1667V73.6667Z" fill="white" fill-opacity="0.8"/>
<path d="M56.6673 73.6667H45.334V39.6667C45.334 38.1027 46.6033 36.8333 48.1673 36.8333H53.834C55.398 36.8333 56.6673 38.1027 56.6673 39.6667V73.6667Z" fill="white" fill-opacity="0.8"/>
<path d="M39.6673 73.6667H28.334V48.1667C28.334 46.6027 29.6033 45.3333 31.1673 45.3333H36.834C38.398 45.3333 39.6673 46.6027 39.6673 48.1667V73.6667Z" fill="white" fill-opacity="0.8"/>
<path d="M22.6673 73.6667H11.334V56.6667C11.334 55.1027 12.6033 53.8333 14.1673 53.8333H19.834C21.398 53.8333 22.6673 55.1027 22.6673 56.6667V73.6667Z" fill="white" fill-opacity="0.8"/>
<path d="M14.166 34L53.8043 13.4442" stroke="white" stroke-opacity="0.8" stroke-width="2" stroke-miterlimit="10" stroke-linecap="round" stroke-linejoin="round"/>
<path d="M42.5 8.5L51 25.5L59.5 9.89683L42.5 8.5Z" fill="white" fill-opacity="0.8"/>
</svg>
