<svg width="73" height="69" viewBox="0 0 73 69" fill="none" xmlns="http://www.w3.org/2000/svg">
<path d="M71.7622 65.4446H50.5234C54.3225 63.0981 56.7936 59.1127 56.7936 52.33C56.7936 48.163 55.8393 43.2615 54.1071 38.4145C49.7643 38.0418 45.7621 36.0895 42.7136 32.8547C39.38 29.3237 37.6362 24.6301 37.8996 19.9808C37.9872 17.4584 38.4807 15.2327 39.2814 13.2915C38.9304 13.1379 38.5467 13.0613 38.1408 13.0613H19.9043C18.2153 13.0613 16.8669 14.4209 16.8669 16.0877C16.8669 17.0419 17.3165 17.897 18.0185 18.4453C9.16843 25.3974 2.02892 40.4421 2.02892 52.3296C2.02892 59.1123 4.60774 63.0976 8.48907 65.4442L1.09676 65.4447C0.491375 65.4447 0 65.935 0 66.5415C0 67.1474 0.490848 67.6382 1.09676 67.6382H14.0573C18.8334 68.7978 24.3762 68.801 29.4105 68.801C34.708 68.801 40.2962 68.7978 45.0353 67.6382H71.7611C72.3665 67.6382 72.8579 67.1479 72.8579 66.5415C72.8579 65.935 72.3665 65.4447 71.7611 65.4447L71.7622 65.4446ZM29.4116 58.2951C20.8032 58.2951 13.7963 51.2881 13.7963 42.669C13.7963 34.0606 20.8032 27.0537 29.4116 27.0537C38.031 27.0537 45.0269 34.0606 45.0269 42.669C45.0269 51.3211 38.0199 58.2951 29.4116 58.2951Z" fill="white" fill-opacity="0.8"/>
<path d="M18.8623 10.8674H39.1823L41.0244 3.90417C41.5289 2.00728 40.1799 0.0333736 38.2171 0H38.1622C36.6596 0 35.4097 0.986979 35.1248 2.30278C34.8181 0.986979 33.5678 0 32.0656 0C30.563 0 29.3132 0.986979 29.0282 2.30278C28.7321 0.986979 27.4602 0 25.9797 0C24.4777 0 23.2273 0.986979 22.9423 2.30278C22.6352 0.986979 21.3631 0 19.8827 0H19.8278C17.8649 0.0327237 16.5158 2.00674 17.0205 3.90417L18.8623 10.8674Z" fill="white" fill-opacity="0.8"/>
<path d="M29.4124 29.2458C22.0095 29.2458 15.9863 35.2695 15.9863 42.6724C15.9863 50.0752 22.0095 56.0979 29.4124 56.0979C36.8612 56.0979 42.8389 50.0562 42.8389 42.6724C42.8389 35.2695 36.8158 29.2458 29.4124 29.2458ZM30.5218 50.7103L30.5371 51.8324C30.545 52.4383 30.061 52.9355 29.4556 52.9439H29.4403C28.8418 52.9439 28.3525 52.4631 28.3441 51.8624L28.3283 50.7176C26.2932 50.2257 24.772 48.4007 24.772 46.2171C24.772 45.6112 25.2629 45.1203 25.8688 45.1203C26.4742 45.1203 26.9655 45.6106 26.9655 46.2171C26.9655 47.5677 28.0644 48.6661 29.4145 48.6661C30.7651 48.6661 31.8629 47.5672 31.8629 46.2171C31.8629 44.8665 30.7635 43.7692 29.4124 43.7692C26.852 43.7692 24.7688 41.6865 24.7688 39.1268C24.7688 36.9517 26.2783 35.1345 28.3009 34.6336L28.2856 33.511C28.2777 32.9051 28.7617 32.4079 29.367 32.3995C29.9803 32.4121 30.4707 32.875 30.4786 33.4809L30.4944 34.6252C32.5301 35.1165 34.0523 36.9417 34.0523 39.1261C34.0523 39.7321 33.5614 40.2229 32.9555 40.2229C32.3501 40.2229 31.8588 39.7326 31.8588 39.1261C31.8588 37.7755 30.7604 36.6772 29.4103 36.6772C28.0597 36.6772 26.9619 37.776 26.9619 39.1261C26.9619 40.4768 28.0613 41.5751 29.4119 41.5751C31.9723 41.5751 34.056 43.6567 34.056 46.2166C34.056 48.3926 32.5454 50.2105 30.5219 50.7103L30.5218 50.7103Z" fill="white" fill-opacity="0.8"/>
<path d="M55.6965 36.2975C64.1449 36.2975 71.3226 29.3982 71.3226 20.6713C71.3226 10.221 63.3503 5.3195 55.937 5.19789C48.579 5.05539 40.4528 9.68306 40.0906 20.112C39.5998 28.5055 46.6238 36.2975 55.6951 36.2975H55.6965ZM54.585 12.6387L54.5697 11.5161C54.5617 10.9102 55.0457 10.413 55.6511 10.4045C56.2528 10.4283 56.7547 10.8801 56.7626 11.486L56.7785 12.6303C58.8141 13.1216 60.3363 14.9468 60.3363 17.1312C60.3363 17.7372 59.8455 18.228 59.2396 18.228C58.6342 18.228 58.1428 17.7377 58.1428 17.1312C58.1428 15.7806 57.0445 14.6823 55.6944 14.6823C54.3438 14.6823 53.246 15.7811 53.246 17.1312C53.246 18.4819 54.3454 19.5802 55.696 19.5802C58.2563 19.5802 60.3401 21.6629 60.3401 24.2226C60.3401 26.3987 58.8295 28.216 56.806 28.7158L56.8213 29.8374C56.8292 30.4433 56.3452 30.9404 55.7398 30.9489H55.7245C55.126 30.9489 54.6368 30.4681 54.6283 29.8674L54.6125 28.7226C52.5778 28.2307 51.0568 26.4066 51.0568 24.2232C51.0568 23.6172 51.5476 23.1264 52.1535 23.1264C52.7589 23.1264 53.2503 23.6167 53.2503 24.2232C53.2503 25.5738 54.3486 26.671 55.6987 26.671C57.0493 26.671 58.1472 25.5732 58.1472 24.2232C58.1472 22.8725 57.0478 21.7742 55.6966 21.7742C53.1363 21.7742 51.053 19.6915 51.053 17.1318C51.053 14.9567 52.5626 13.1395 54.5851 12.6386L54.585 12.6387Z" fill="white" fill-opacity="0.8"/>
</svg>
