<svg width="22" height="22" viewBox="0 0 22 22" fill="none" xmlns="http://www.w3.org/2000/svg">
<path d="M5 15.7499C6.3848 15.745 7.69781 15.1323 8.59096 14.0739L13.34 16.633H13.3401C13.0997 17.7859 13.3487 18.9868 14.0275 19.9494C14.7062 20.9118 15.7538 21.5495 16.9207 21.7102C18.0874 21.8709 19.2685 21.5403 20.1822 20.7973C21.0959 20.0542 21.6603 18.9653 21.7408 17.7903C21.8212 16.6154 21.4105 15.4598 20.6066 14.5989C19.8029 13.7383 18.6779 13.2498 17.5001 13.2499C16.2226 13.2548 15.0158 13.837 14.2171 14.834L9.54221 12.3149C9.67363 11.8887 9.74377 11.4459 9.75014 10.9999C9.74377 10.5539 9.67363 10.1111 9.54221 9.68489L14.2184 7.16587C15.071 8.19762 16.3621 8.76449 17.6987 8.69365C19.0353 8.623 20.2594 7.92307 20.9981 6.80695C21.7371 5.69099 21.9035 4.29076 21.4466 3.03269C20.9898 1.77462 19.9639 0.807288 18.681 0.425259C17.3983 0.0433934 16.0103 0.291832 14.9397 1.09507C13.869 1.8983 13.2424 3.16143 13.2504 4.49986C13.2507 4.79149 13.281 5.08246 13.3405 5.36789L8.59145 7.92595C7.53995 6.69865 5.93546 6.09162 4.33488 6.3158C2.73442 6.5398 1.35832 7.56385 0.683965 9.03273C0.00982195 10.5016 0.130679 12.2127 1.00439 13.5726C1.87795 14.9323 3.38429 15.7531 5.00048 15.7501L5 15.7499Z" fill="#B0CAD1"/>
</svg>
