<svg width="24" height="15" viewBox="0 0 24 15" fill="none" xmlns="http://www.w3.org/2000/svg">
<path d="M23.0491 5.3269C23.1804 5.25047 23.2893 5.14094 23.3651 5.00925C23.4408 4.87756 23.4806 4.72832 23.4807 4.57641V0.868263C23.4807 0.754238 23.4582 0.641328 23.4146 0.535981C23.371 0.430634 23.307 0.334914 23.2264 0.254286C23.1458 0.173659 23.05 0.109703 22.9447 0.0660724C22.8393 0.0224415 22.7264 -1.00009e-05 22.6124 3.80266e-09H16.7268V1.44727C16.7268 1.67754 16.6353 1.89839 16.4725 2.06122C16.3096 2.22405 16.0888 2.31553 15.8585 2.31553C15.6282 2.31553 15.4074 2.22405 15.2445 2.06122C15.0817 1.89839 14.9902 1.67754 14.9902 1.44727V3.80266e-09H1.38584C1.27182 -1.06679e-05 1.15891 0.0224403 1.05356 0.0660708C0.948211 0.109701 0.85249 0.173657 0.771863 0.254284C0.691235 0.334912 0.62728 0.430633 0.583649 0.53598C0.540019 0.641328 0.517567 0.754238 0.517578 0.868263V4.57641C0.517597 4.72832 0.557457 4.87757 0.633181 5.00925C0.708904 5.14094 0.817843 5.25047 0.949122 5.3269C1.31245 5.53292 1.61463 5.83162 1.82485 6.19253C2.03507 6.55345 2.1458 6.96366 2.14576 7.38133C2.14571 7.799 2.03488 8.20919 1.82458 8.57006C1.61428 8.93092 1.31202 9.22955 0.94865 9.43549C0.81743 9.51195 0.708564 9.62149 0.632922 9.75318C0.55728 9.88488 0.51751 10.0341 0.517583 10.186V13.8937C0.517573 14.0077 0.540023 14.1206 0.583654 14.2259C0.627284 14.3313 0.691239 14.427 0.771866 14.5076C0.852493 14.5883 0.948213 14.6522 1.05356 14.6958C1.15891 14.7395 1.27182 14.7619 1.38584 14.7619H14.9902V13.3147C14.9902 13.0844 15.0817 12.8635 15.2445 12.7007C15.4074 12.5379 15.6282 12.4464 15.8585 12.4464C16.0888 12.4464 16.3096 12.5379 16.4725 12.7007C16.6353 12.8635 16.7268 13.0844 16.7268 13.3147V14.7619H22.6124C22.7264 14.7619 22.8393 14.7395 22.9447 14.6958C23.05 14.6522 23.1458 14.5883 23.2264 14.5076C23.307 14.427 23.371 14.3313 23.4146 14.2259C23.4582 14.1206 23.4807 14.0077 23.4807 13.8937V10.186C23.4807 10.0341 23.4408 9.88482 23.3651 9.75314C23.2893 9.62145 23.1804 9.51192 23.0491 9.43549C22.6858 9.22946 22.3837 8.93078 22.1735 8.5699C21.9633 8.20901 21.8525 7.79884 21.8525 7.38119C21.8525 6.96355 21.9633 6.55337 22.1735 6.19249C22.3837 5.83161 22.6858 5.53292 23.0491 5.3269H23.0491ZM16.7268 10.3238C16.7268 10.5541 16.6353 10.7749 16.4724 10.9377C16.3096 11.1006 16.0888 11.192 15.8585 11.192C15.6282 11.192 15.4074 11.1006 15.2445 10.9377C15.0817 10.7749 14.9902 10.5541 14.9902 10.3238V8.87651C14.9902 8.64623 15.0817 8.42538 15.2445 8.26255C15.4074 8.09972 15.6282 8.00824 15.8585 8.00824C16.0888 8.00824 16.3096 8.09972 16.4724 8.26255C16.6353 8.42538 16.7268 8.64623 16.7268 8.87651V10.3238ZM16.7268 5.8854C16.7268 6.11568 16.6353 6.33652 16.4724 6.49935C16.3096 6.66218 16.0888 6.75366 15.8585 6.75366C15.6282 6.75366 15.4074 6.66218 15.2445 6.49935C15.0817 6.33652 14.9902 6.11568 14.9902 5.8854V4.43813C14.9902 4.20786 15.0817 3.98701 15.2445 3.82418C15.4074 3.66135 15.6282 3.56987 15.8585 3.56987C16.0888 3.56987 16.3096 3.66135 16.4724 3.82418C16.6353 3.98701 16.7268 4.20786 16.7268 4.43813V5.8854Z" fill="#B0CAD1"/>
</svg>
