<svg width="29" height="29" viewBox="0 0 29 29" fill="none" xmlns="http://www.w3.org/2000/svg">
<path d="M18.125 14.5V18.125" stroke="white" stroke-width="1.5" stroke-linecap="round" stroke-linejoin="round"/>
<path d="M14.5 3.625V7.25" stroke="white" stroke-width="1.5" stroke-linecap="round" stroke-linejoin="round"/>
<path d="M21.75 14.5V18.125" stroke="white" stroke-width="1.5" stroke-linecap="round" stroke-linejoin="round"/>
<path d="M14.5 21.75H25.375" stroke="white" stroke-width="1.5" stroke-linecap="round" stroke-linejoin="round"/>
<path d="M21.75 25.375H25.375" stroke="white" stroke-width="1.5" stroke-linecap="round" stroke-linejoin="round"/>
<path d="M7.25 14.5H10.875" stroke="white" stroke-width="1.5" stroke-linecap="round" stroke-linejoin="round"/>
<path d="M7.25 7.2625L7.26125 7.25" stroke="white" stroke-width="1.5" stroke-linecap="round" stroke-linejoin="round"/>
<path d="M14.5 14.5125L14.5113 14.5" stroke="white" stroke-width="1.5" stroke-linecap="round" stroke-linejoin="round"/>
<path d="M3.625 14.5125L3.63625 14.5" stroke="white" stroke-width="1.5" stroke-linecap="round" stroke-linejoin="round"/>
<path d="M14.5 10.8875L14.5113 10.875" stroke="white" stroke-width="1.5" stroke-linecap="round" stroke-linejoin="round"/>
<path d="M14.5 18.1375L14.5113 18.125" stroke="white" stroke-width="1.5" stroke-linecap="round" stroke-linejoin="round"/>
<path d="M18.125 25.3875L18.1363 25.375" stroke="white" stroke-width="1.5" stroke-linecap="round" stroke-linejoin="round"/>
<path d="M14.5 25.3875L14.5113 25.375" stroke="white" stroke-width="1.5" stroke-linecap="round" stroke-linejoin="round"/>
<path d="M25.375 14.5125L25.3863 14.5" stroke="white" stroke-width="1.5" stroke-linecap="round" stroke-linejoin="round"/>
<path d="M25.375 18.1375L25.3863 18.125" stroke="white" stroke-width="1.5" stroke-linecap="round" stroke-linejoin="round"/>
<path d="M21.75 7.2625L21.7613 7.25" stroke="white" stroke-width="1.5" stroke-linecap="round" stroke-linejoin="round"/>
<path d="M10.875 4.35V10.15C10.875 10.5504 10.5504 10.875 10.15 10.875H4.35C3.94959 10.875 3.625 10.5504 3.625 10.15V4.35C3.625 3.94959 3.94959 3.625 4.35 3.625H10.15C10.5504 3.625 10.875 3.94959 10.875 4.35Z" stroke="white" stroke-width="1.5" stroke-linecap="round" stroke-linejoin="round"/>
<path d="M25.375 4.35V10.15C25.375 10.5504 25.0504 10.875 24.65 10.875H18.85C18.4496 10.875 18.125 10.5504 18.125 10.15V4.35C18.125 3.94959 18.4496 3.625 18.85 3.625H24.65C25.0504 3.625 25.375 3.94959 25.375 4.35Z" stroke="white" stroke-width="1.5" stroke-linecap="round" stroke-linejoin="round"/>
<path d="M7.25 21.7625L7.26125 21.75" stroke="white" stroke-width="1.5" stroke-linecap="round" stroke-linejoin="round"/>
<path d="M10.875 18.85V24.65C10.875 25.0504 10.5504 25.375 10.15 25.375H4.35C3.94959 25.375 3.625 25.0504 3.625 24.65V18.85C3.625 18.4496 3.94959 18.125 4.35 18.125H10.15C10.5504 18.125 10.875 18.4496 10.875 18.85Z" stroke="white" stroke-width="1.5" stroke-linecap="round" stroke-linejoin="round"/>
</svg>
