<svg width="236" height="236" viewBox="0 0 236 236" fill="none" xmlns="http://www.w3.org/2000/svg">
<g clip-path="url(#clip0_183_4281)">
<path d="M29.5 29.5H59V59H29.5V29.5Z" fill="white"/>
<path d="M88.5 0V88.5H0V0H88.5ZM73.75 14.75H14.75V73.75H73.75V14.75ZM59 177H29.5V206.5H59V177Z" fill="white"/>
<path d="M88.5 147.5V236H0V147.5H88.5ZM14.75 162.25V221.25H73.75V162.25H14.75ZM177 29.5H206.5V59H177V29.5Z" fill="white"/>
<path d="M147.5 0V88.5H236V0H147.5ZM221.25 14.75V73.75H162.25V14.75H221.25ZM118 14.75V0H132.75V29.5H118V59H103.25V14.75H118ZM118 88.5V59H132.75V88.5H118ZM88.5 118V103.25H103.25V88.5H118V118H132.75V103.25H206.5V118H147.5V132.75H103.25V118H88.5ZM88.5 118V132.75H29.5V118H14.75V132.75H0V103.25H44.25V118H88.5ZM236 132.75H221.25V103.25H236V132.75ZM221.25 132.75H206.5V162.25H236V147.5H221.25V132.75ZM162.25 132.75H191.75V147.5H177V162.25H162.25V132.75ZM191.75 177V162.25H177V177H162.25V191.75H132.75V206.5H177V177H191.75ZM191.75 177H236V191.75H206.5V206.5H191.75V177ZM132.75 162.25V177H147.5V147.5H103.25V162.25H132.75Z" fill="white"/>
<path d="M103.25 177H118V221.25H177V236H103.25V177ZM236 206.5V236H191.75V221.25H221.25V206.5H236Z" fill="white"/>
</g>
<defs>
<clipPath id="clip0_183_4281">
<rect width="236" height="236" fill="white"/>
</clipPath>
</defs>
</svg>
