<svg width="61" height="32" viewBox="0 0 61 32" fill="none" xmlns="http://www.w3.org/2000/svg">
<path d="M0.189986 29.9423C1.39657 29.8987 2.26153 29.7388 2.78487 29.4625C3.67164 28.9974 4.11502 28.1106 4.11502 26.8022V5.19273C4.11502 3.88438 3.70071 3.00488 2.8721 2.55423C2.37783 2.27802 1.4838 2.10358 0.189986 2.03089V0.896993H13.993C16.6533 0.896993 18.863 1.20227 20.622 1.81284C23.9365 2.96127 25.5937 5.05463 25.5937 8.0929C25.5937 9.93912 24.9177 11.4074 23.5658 12.4977C22.2283 13.5734 20.7746 14.2567 19.2046 14.5474V14.9617C20.8619 15.2815 22.301 15.8194 23.5222 16.5753C25.9063 18.0581 27.0983 20.1224 27.0983 22.7682C27.0983 25.2395 25.9571 27.2456 23.6748 28.7866C21.3925 30.313 18.3542 31.0762 14.56 31.0762H0.189986V29.9423ZM11.2455 14.4384C14.0076 14.4384 15.8611 13.9877 16.806 13.0864C17.7509 12.1851 18.2234 10.586 18.2234 8.28915C18.2234 6.5883 17.9108 5.15639 17.2857 3.99341C16.6751 2.83044 15.4904 2.24895 13.7314 2.24895C12.801 2.24895 12.1541 2.40886 11.7907 2.72868C11.4272 3.03396 11.2455 3.59364 11.2455 4.40772V14.4384ZM11.2455 26.9549C11.26 27.7399 11.3763 28.3141 11.5944 28.6775C11.9578 29.3172 12.6556 29.637 13.6878 29.637C15.7956 29.637 17.2712 29.0628 18.1143 27.9143C18.972 26.7659 19.4009 25.1305 19.4009 23.008C19.4009 19.8389 18.4632 17.731 16.5879 16.6844C15.454 16.0447 13.6732 15.7467 11.2455 15.7903V26.9549ZM29.9767 29.9423C31.4885 29.8696 32.5207 29.5861 33.0731 29.0918C33.6255 28.5976 33.9017 27.5218 33.9017 25.8646V6.13038C33.9017 4.40045 33.5746 3.27382 32.9204 2.75048C32.4843 2.40159 31.5031 2.16173 29.9767 2.03089V0.896993H44.3467C47.3268 0.896993 49.74 1.20954 51.5862 1.83464C55.1623 3.09938 56.9504 5.37444 56.9504 8.65985C56.9504 11.0876 56.0564 12.9992 54.2683 14.3948C52.9018 15.4414 51.4553 16.1101 49.9289 16.4009L58.9129 29.1137C59.16 29.4625 59.4217 29.6951 59.6979 29.8114C59.9741 29.9132 60.3157 29.9786 60.7228 30.0077V31.0762H51.5862L42.3187 17.1205H41.1412V25.8646C41.1412 27.4346 41.4029 28.4958 41.9262 29.0482C42.4496 29.5861 43.4962 29.8841 45.0663 29.9423V31.0762H29.9767V29.9423ZM41.1412 15.6813C44.0632 15.6377 46.1493 15.2306 47.3995 14.4602C48.6642 13.6752 49.2966 11.8726 49.2966 9.05235C49.2966 7.32243 49.0567 5.95593 48.577 4.95287C47.7484 3.25202 46.2365 2.40159 44.0414 2.40159C42.8493 2.40159 42.0643 2.55423 41.6864 2.85951C41.3229 3.15026 41.1412 3.63725 41.1412 4.3205V15.6813Z" fill="white"/>
</svg>
