<svg width="44" height="45" viewBox="0 0 44 45" fill="none" xmlns="http://www.w3.org/2000/svg">
<path d="M21.8757 2.99406C32.6796 2.99406 41.4746 11.789 41.4746 22.5929C41.4746 33.3968 32.7243 42.2364 21.8757 42.2364C11.0718 42.2364 2.27686 33.4415 2.27686 22.6376C2.27686 11.8336 11.0718 2.99406 21.8757 2.99406ZM21.8757 0.717041C9.7771 0.717041 0 10.4941 0 22.5927C0 34.6914 9.7771 44.4685 21.8757 44.4685C33.9743 44.4685 43.7514 34.6914 43.7514 22.5927C43.7514 10.4941 33.9743 0.717041 21.8757 0.717041Z" fill="white"/>
<path d="M12.0977 21.4768H31.6965V23.7536H12.0977V21.4768Z" fill="white"/>
</svg>
