<?xml version="1.0" standalone="no"?>
<!DOCTYPE svg PUBLIC "-//W3C//DTD SVG 20010904//EN"
 "http://www.w3.org/TR/2001/REC-SVG-20010904/DTD/svg10.dtd">
<svg version="1.0" xmlns="http://www.w3.org/2000/svg"
 width="100.000000pt" height="100.000000pt" viewBox="0 0 100.000000 100.000000"
 preserveAspectRatio="xMidYMid meet">
<metadata>
Created by potrace 1.14, written by Peter Selinger 2001-2017
</metadata>
<g transform="translate(0.000000,100.000000) scale(0.100000,-0.100000)"
fill="#000000" stroke="none">
<path d="M58 917 c-18 -13 -38 -34 -45 -47 -16 -32 -18 -691 -3 -736 6 -16 25
-39 43 -51 33 -23 34 -23 466 -23 l432 0 24 25 25 24 0 308 c-1 323 -1 327
-46 351 -15 8 -147 11 -432 12 -225 0 -417 3 -426 6 -22 9 -20 51 3 64 13 6
147 10 368 10 362 0 373 1 373 42 0 35 -31 38 -394 38 -350 -1 -355 -1 -388
-23z m122 -317 c21 -40 -7 -73 -52 -62 -20 5 -30 40 -17 64 13 24 55 23 69 -2z
m304 14 c26 -10 21 -63 -6 -73 -33 -12 -58 4 -58 39 0 35 26 49 64 34z m-243
-74 c24 -13 26 -65 3 -74 -8 -3 -26 -3 -40 0 -18 5 -24 13 -24 35 0 16 7 32
18 38 21 13 20 13 43 1z m176 -6 c12 -11 11 -43 -2 -63 -6 -11 -45 -11 -61 1
-9 7 -10 18 -5 60 2 17 50 18 68 2z m463 -54 c55 -55 -24 -136 -82 -83 -40 36
-10 98 50 102 6 1 21 -8 32 -19z m-700 -25 c7 -8 10 -25 6 -40 -5 -19 -13 -25
-35 -25 -39 0 -54 20 -41 54 11 30 49 36 70 11z m316 -10 c10 -40 -2 -57 -38
-53 -26 2 -34 8 -36 26 -6 37 5 52 37 52 24 0 32 -5 37 -25z m-158 -2 c16 -31
-3 -63 -37 -63 -24 0 -32 5 -37 25 -3 14 -4 32 0 40 8 21 63 19 74 -2z m-154
-135 c15 -25 -3 -52 -38 -56 -20 -3 -28 2 -36 24 -8 19 -7 30 1 41 16 18 59
13 73 -9z m312 -3 c10 -40 -2 -57 -38 -53 -26 2 -34 8 -36 26 -6 37 5 52 37
52 24 0 32 -5 37 -25z"/>
</g>
</svg>
