<svg width="100" height="91" viewBox="0 0 100 91" fill="none" xmlns="http://www.w3.org/2000/svg">
<path d="M99.2168 41.9322C99.0869 38.0224 95.3564 34.9535 92.1203 32.7176L91.9947 32.8984C89.606 24.8082 84.9385 17.6931 78.7332 12.2902C77.3577 8.26904 74.2716 1.57445 68.6927 0.326641C65.1409 -0.468389 61.1678 0.212553 57.0471 2.10039C54.7725 1.73301 52.4427 1.53569 50.0661 1.53569C40.8616 1.53569 32.3178 4.40163 25.2643 9.2786C20.6599 8.2109 16.9034 8.75479 14.3088 10.9655C11.473 13.3829 11.5836 18.7085 11.91 23.511L12.1726 23.4938C10.2081 26.9007 8.68251 30.5918 7.69095 34.4945L7.47711 34.1673C1.13557 38.3124 -0.0865174 42.4664 0.00459296 45.221C0.133033 49.1116 2.86043 52.5795 7.54949 55.4079C9.37419 63.0498 13.2094 69.9158 18.4655 75.4192C18.8738 78.3869 19.6286 81.0504 20.7645 83.2986C22.7614 87.2508 25.8649 89.7973 29.7387 90.6649C30.7404 90.8895 31.7744 91 32.84 91C35.8536 91 39.1178 90.098 42.5805 88.3185C45.0144 88.7404 47.5108 88.9729 50.063 88.9729C55.5033 88.9729 60.712 87.9662 65.5196 86.1422L65.3897 86.5333C68.1401 87.4424 70.9463 88.2604 73.4893 88.2604C75.4245 88.2604 77.2048 87.7861 78.6922 86.5196C81.5157 84.1124 82.5655 80.0954 82.0416 75.021C87.8817 68.7511 91.9107 60.7749 93.2719 51.9256C97.1854 48.9463 99.3351 45.5473 99.2159 41.9318L99.2168 41.9322ZM95.1038 42.0679C95.1425 43.2561 94.679 44.483 93.7728 45.7086C93.7749 45.5565 93.7842 45.4065 93.7842 45.253C93.7842 43.1277 93.6235 41.0389 93.3293 38.9939C94.4666 40.157 95.0744 41.1874 95.1038 42.0679ZM89.6699 45.2538C89.6699 46.7032 89.5866 48.134 89.4331 49.5433C86.7782 51.2683 83.255 52.8971 79.0022 54.3042C77.9087 52.5771 75.9857 51.4261 73.7893 51.4261C73.4212 51.4261 73.0631 51.4642 72.713 51.5259C69.6196 46.501 65.8216 41.2794 61.378 36.065C56.6875 30.5608 51.7034 25.612 46.7287 21.4752C46.931 20.8653 47.0437 20.2152 47.0437 19.5371C47.0437 18.1401 46.5737 16.8556 45.7909 15.8203C49.7387 11.6313 53.79 8.38456 57.6216 6.38105C75.8566 9.92003 89.6701 26.001 89.6701 45.2536L89.6699 45.2538ZM50.1214 58.9982C41.6479 59.2773 33.9653 58.7177 27.4062 57.594C27.1199 55.9006 26.152 54.4404 24.7864 53.5141C25.8965 49.579 27.3552 45.5092 29.1592 41.4171C31.7567 35.524 34.8866 30.0182 38.2842 25.1346C39.072 25.5006 39.9467 25.7094 40.8716 25.7094C42.1008 25.7094 43.2438 25.3456 44.2067 24.7256C48.9604 28.6893 53.7349 33.4395 58.2469 38.7342C62.5757 43.8136 66.1937 48.8357 69.1034 53.5894C68.2689 54.5639 67.7365 55.8009 67.6403 57.16C62.3614 58.1309 56.4804 58.7874 50.1216 58.9984L50.1214 58.9982ZM67.7937 4.34117C69.1132 4.63609 70.4313 5.6557 71.6432 7.25505C69.5049 6.03596 67.2584 4.98483 64.9134 4.13526C65.9129 4.07857 66.8787 4.13667 67.7937 4.34117ZM50.0653 5.64997C50.3717 5.64997 50.6745 5.66647 50.9788 5.67365C48.0412 7.77966 45.0935 10.4209 42.2256 13.5192C41.7886 13.4202 41.3373 13.365 40.8716 13.365C39.5004 13.365 38.2374 13.8177 37.2128 14.5747C36.5053 14.1385 35.8007 13.7166 35.1033 13.3241C33.4444 12.3898 31.8443 11.602 30.3094 10.9519C36.1279 7.58668 42.8722 5.64997 50.0653 5.64997ZM16.9772 14.0968C17.8928 13.3161 19.1694 12.9171 20.7256 12.8705C18.9891 14.4455 17.3876 16.1633 15.9217 17.9951C16.0351 15.9199 16.3838 14.6019 16.9772 14.0968ZM26.077 13.7689C28.2075 14.4455 30.5661 15.491 33.0832 16.9081C33.6859 17.2475 34.2937 17.6099 34.9036 17.9823C34.7751 18.4803 34.6991 18.9983 34.6991 19.5365C34.6991 20.4714 34.9129 21.354 35.2853 22.1491C31.6172 27.3635 28.2399 33.3011 25.394 39.7575C23.4911 44.0735 21.9534 48.3487 20.7874 52.481C19.0193 52.6345 17.4681 53.5336 16.442 54.8625C14.4651 54.1794 12.7 53.4346 11.1631 52.6446C10.7082 50.248 10.4606 47.7805 10.4606 45.2526C10.4621 32.4273 16.595 21.0128 26.0772 13.7699L26.077 13.7689ZM4.11687 45.0844C4.05516 43.2052 5.18671 41.4738 6.67126 40.02C6.46533 41.7378 6.34694 43.4815 6.34694 45.2537C6.34694 46.7003 6.42228 48.1276 6.56006 49.5381C5.01878 48.0937 4.16646 46.5848 4.11687 45.0844ZM15.1669 58.8641C15.253 61.1365 16.5626 63.0919 18.4605 64.0899C18.2833 65.6584 18.1835 67.1781 18.1419 68.6562C15.751 65.4036 13.8504 61.7721 12.5344 57.8731C13.3768 58.2182 14.2535 58.5491 15.1669 58.8641ZM30.6379 86.6491C27.9672 86.0528 25.8812 84.3006 24.4383 81.4433C24.2532 81.0759 24.0939 80.677 23.9325 80.2809C27.4749 82.9308 31.4359 85.0467 35.6894 86.5321C33.8575 86.9389 32.1533 86.9885 30.6379 86.6491ZM22.3847 73.5419C22.1335 70.8512 22.1881 67.8697 22.544 64.6766C24.3091 64.3229 25.7973 63.2135 26.6698 61.7038C32.3771 62.6638 38.769 63.1883 45.6359 63.1883C47.1535 63.1883 48.6961 63.1625 50.2568 63.1108C56.8876 62.8906 63.1144 62.2168 68.7673 61.1779C69.8881 62.7457 71.7171 63.7703 73.7901 63.7703C74.0125 63.7703 74.2321 63.7567 74.4488 63.7344C76.0518 67.4075 77.1152 70.7541 77.6446 73.6386C70.5086 80.5744 60.7802 84.8581 50.0672 84.8581C39.302 84.8581 29.5325 80.5357 22.3869 73.5418L22.3847 73.5419ZM76.0259 83.3858C74.9281 84.3222 73.1343 84.3237 70.709 83.779C73.2972 82.387 75.7289 80.7424 77.9727 78.8774C77.7796 80.8944 77.1367 82.4395 76.0259 83.3858ZM81.0717 69.8488C80.408 67.3531 79.4486 64.684 78.2173 61.892C79.1135 60.9686 79.7184 59.7667 79.8985 58.4278C83.0988 57.396 85.9746 56.2235 88.468 54.9291C87.076 60.4541 84.515 65.5164 81.0716 69.849L81.0717 69.8488Z" fill="url(#paint0_linear_83_56)"/>
<defs>
<linearGradient id="paint0_linear_83_56" x1="49.6103" y1="0" x2="49.6103" y2="91" gradientUnits="userSpaceOnUse">
<stop stop-color="#878FE8"/>
<stop offset="1" stop-color="#4CCCD0"/>
</linearGradient>
</defs>
</svg>
