<svg width="138" height="129" viewBox="0 0 138 129" fill="none" xmlns="http://www.w3.org/2000/svg">
<g filter="url(#filter0_f_1_437)">
<path d="M118.217 60.9322C118.087 57.0224 114.356 53.9535 111.12 51.7176L110.995 51.8984C108.606 43.8082 103.938 36.6931 97.7332 31.2902C96.3577 27.269 93.2716 20.5744 87.6927 19.3266C84.1409 18.5316 80.1678 19.2126 76.0471 21.1004C73.7725 20.733 71.4427 20.5357 69.0661 20.5357C59.8616 20.5357 51.3178 23.4016 44.2643 28.2786C39.6599 27.2109 35.9034 27.7548 33.3088 29.9655C30.473 32.3829 30.5836 37.7085 30.91 42.511L31.1726 42.4938C29.2081 45.9007 27.6825 49.5918 26.6909 53.4945L26.4771 53.1673C20.1356 57.3124 18.9135 61.4664 19.0046 64.221C19.133 68.1116 21.8604 71.5795 26.5495 74.4079C28.3742 82.0498 32.2094 88.9158 37.4655 94.4192C37.8738 97.3869 38.6286 100.05 39.7645 102.299C41.7614 106.251 44.8649 108.797 48.7387 109.665C49.7404 109.89 50.7744 110 51.84 110C54.8536 110 58.1178 109.098 61.5805 107.318C64.0144 107.74 66.5108 107.973 69.063 107.973C74.5033 107.973 79.712 106.966 84.5196 105.142L84.3897 105.533C87.1401 106.442 89.9463 107.26 92.4893 107.26C94.4245 107.26 96.2048 106.786 97.6922 105.52C100.516 103.112 101.565 99.0954 101.042 94.021C106.882 87.7511 110.911 79.7749 112.272 70.9256C116.185 67.9463 118.335 64.5473 118.216 60.9318L118.217 60.9322ZM114.104 61.0679C114.143 62.2561 113.679 63.483 112.773 64.7086C112.775 64.5565 112.784 64.4065 112.784 64.253C112.784 62.1277 112.624 60.0389 112.329 57.9939C113.467 59.157 114.074 60.1874 114.104 61.0679ZM108.67 64.2538C108.67 65.7032 108.587 67.134 108.433 68.5433C105.778 70.2683 102.255 71.8971 98.0022 73.3042C96.9087 71.5771 94.9857 70.4261 92.7893 70.4261C92.4212 70.4261 92.0631 70.4642 91.713 70.5259C88.6196 65.501 84.8216 60.2794 80.378 55.065C75.6875 49.5608 70.7034 44.612 65.7287 40.4752C65.931 39.8653 66.0437 39.2152 66.0437 38.5371C66.0437 37.1401 65.5737 35.8556 64.7909 34.8203C68.7387 30.6313 72.79 27.3846 76.6216 25.3811C94.8566 28.92 108.67 45.001 108.67 64.2536L108.67 64.2538ZM69.1214 77.9982C60.6479 78.2773 52.9653 77.7177 46.4062 76.594C46.1199 74.9006 45.152 73.4404 43.7864 72.5141C44.8965 68.579 46.3552 64.5092 48.1592 60.4171C50.7567 54.524 53.8866 49.0182 57.2842 44.1346C58.072 44.5006 58.9467 44.7094 59.8716 44.7094C61.1008 44.7094 62.2438 44.3456 63.2067 43.7256C67.9604 47.6893 72.7349 52.4395 77.2469 57.7342C81.5757 62.8136 85.1937 67.8357 88.1034 72.5894C87.2689 73.5639 86.7365 74.8009 86.6403 76.16C81.3614 77.1309 75.4804 77.7874 69.1216 77.9984L69.1214 77.9982ZM86.7937 23.3412C88.1132 23.6361 89.4313 24.6557 90.6432 26.2551C88.5049 25.036 86.2584 23.9848 83.9134 23.1353C84.9129 23.0786 85.8787 23.1367 86.7937 23.3412ZM69.0653 24.65C69.3717 24.65 69.6745 24.6665 69.9788 24.6736C67.0412 26.7797 64.0935 29.4209 61.2256 32.5192C60.7886 32.4202 60.3373 32.365 59.8716 32.365C58.5004 32.365 57.2374 32.8177 56.2128 33.5747C55.5053 33.1385 54.8007 32.7166 54.1033 32.3241C52.4444 31.3898 50.8443 30.602 49.3094 29.9519C55.1279 26.5867 61.8722 24.65 69.0653 24.65ZM35.9772 33.0968C36.8928 32.3161 38.1694 31.9171 39.7256 31.8705C37.9891 33.4455 36.3876 35.1633 34.9217 36.9951C35.0351 34.9199 35.3838 33.6019 35.9772 33.0968ZM45.077 32.7689C47.2075 33.4455 49.5661 34.491 52.0832 35.9081C52.6859 36.2475 53.2937 36.6099 53.9036 36.9823C53.7751 37.4803 53.6991 37.9983 53.6991 38.5365C53.6991 39.4714 53.9129 40.354 54.2853 41.1491C50.6172 46.3635 47.2399 52.3011 44.394 58.7575C42.4911 63.0735 40.9534 67.3487 39.7874 71.481C38.0193 71.6345 36.4681 72.5336 35.442 73.8625C33.4651 73.1794 31.7 72.4346 30.1631 71.6446C29.7082 69.248 29.4606 66.7805 29.4606 64.2526C29.4621 51.4273 35.595 40.0128 45.0772 32.7699L45.077 32.7689ZM23.1169 64.0844C23.0552 62.2052 24.1867 60.4738 25.6713 59.02C25.4653 60.7378 25.3469 62.4815 25.3469 64.2537C25.3469 65.7003 25.4223 67.1276 25.5601 68.5381C24.0188 67.0937 23.1665 65.5848 23.1169 64.0844ZM34.1669 77.8641C34.253 80.1365 35.5626 82.0919 37.4605 83.0899C37.2833 84.6584 37.1835 86.1781 37.1419 87.6562C34.751 84.4036 32.8504 80.7721 31.5344 76.8731C32.3768 77.2182 33.2535 77.5491 34.1669 77.8641ZM49.6379 105.649C46.9672 105.053 44.8812 103.301 43.4383 100.443C43.2532 100.076 43.0939 99.677 42.9325 99.2809C46.4749 101.931 50.4359 104.047 54.6894 105.532C52.8575 105.939 51.1533 105.988 49.6379 105.649ZM41.3847 92.5419C41.1335 89.8512 41.1881 86.8697 41.544 83.6766C43.3091 83.3229 44.7973 82.2135 45.6698 80.7038C51.3771 81.6638 57.769 82.1883 64.6359 82.1883C66.1535 82.1883 67.6961 82.1625 69.2568 82.1108C75.8876 81.8906 82.1144 81.2168 87.7673 80.1779C88.8881 81.7457 90.7171 82.7703 92.7901 82.7703C93.0125 82.7703 93.2321 82.7567 93.4488 82.7344C95.0518 86.4075 96.1152 89.7541 96.6446 92.6386C89.5086 99.5744 79.7802 103.858 69.0672 103.858C58.302 103.858 48.5325 99.5357 41.3869 92.5418L41.3847 92.5419ZM95.0259 102.386C93.9281 103.322 92.1343 103.324 89.709 102.779C92.2972 101.387 94.7289 99.7424 96.9727 97.8774C96.7796 99.8944 96.1367 101.439 95.0259 102.386ZM100.072 88.8488C99.408 86.3531 98.4486 83.684 97.2173 80.892C98.1135 79.9686 98.7184 78.7667 98.8985 77.4278C102.099 76.396 104.975 75.2235 107.468 73.9291C106.076 79.4541 103.515 84.5164 100.072 88.849L100.072 88.8488Z" fill="url(#paint0_linear_1_437)"/>
</g>
<defs>
<filter id="filter0_f_1_437" x="0" y="0" width="137.221" height="129" filterUnits="userSpaceOnUse" color-interpolation-filters="sRGB">
<feFlood flood-opacity="0" result="BackgroundImageFix"/>
<feBlend mode="normal" in="SourceGraphic" in2="BackgroundImageFix" result="shape"/>
<feGaussianBlur stdDeviation="9.5" result="effect1_foregroundBlur_1_437"/>
</filter>
<linearGradient id="paint0_linear_1_437" x1="68.6103" y1="19" x2="68.6103" y2="110" gradientUnits="userSpaceOnUse">
<stop stop-color="#878FE8"/>
<stop offset="1" stop-color="#4CCCD0"/>
</linearGradient>
</defs>
</svg>
