<svg width="60" height="60" viewBox="0 0 60 60" fill="none" xmlns="http://www.w3.org/2000/svg">
<path d="M52.7343 0.210938C49.9335 0.949219 48.1874 3.90234 48.914 6.64453C49.1835 7.67578 49.582 8.34375 50.3554 9.11719C50.7655 9.52734 51.0937 9.89062 51.0937 9.91406C51.0937 9.96094 42.7382 32.0039 41.3788 35.5664L41.0155 36.5039L40.3241 36.4688C39.4218 36.4102 38.3202 36.7031 37.453 37.2188C36.8554 37.5703 36.7382 37.6055 36.5741 37.4648C36.4687 37.3711 34.2538 35.543 31.6405 33.3984C29.0273 31.2539 26.8476 29.4609 26.789 29.4023C26.7421 29.3555 26.8124 29.0156 26.953 28.6289C28.6171 24.1641 23.953 19.9336 19.6171 21.9844C16.4648 23.4727 15.6445 27.7383 18.0116 30.3633L18.4101 30.8086L13.0312 40.1602L7.66398 49.5117L7.31242 49.4531C7.12492 49.418 6.41008 49.3945 5.73039 49.3945C4.5468 49.3945 4.46476 49.4062 3.62101 49.8281C2.47258 50.3906 1.64055 51.2227 1.08976 52.3594C0.714765 53.1094 0.656171 53.3555 0.609296 54.2813C0.538983 55.582 0.785077 56.5664 1.40617 57.5156C3.41008 60.6328 7.9218 60.8203 10.1249 57.8789C11.6718 55.8281 11.578 53.0859 9.90226 51.1289L9.49211 50.6367L14.8593 41.2852C19.289 33.5742 20.2734 31.9453 20.4609 31.9688C20.578 31.9922 21.1405 32.0391 21.6913 32.0742C22.8866 32.1445 23.6249 31.9688 24.6327 31.3594L25.3124 30.9609L30.3515 35.1094C33.1171 37.4062 35.3905 39.3164 35.3905 39.3633C35.3905 39.4219 35.2851 39.7148 35.1445 40.0195C35.0155 40.3242 34.8749 40.9453 34.8398 41.4023C34.6757 43.6055 35.8827 45.6328 37.9335 46.6055C39.4687 47.3438 41.2499 47.2734 42.7968 46.4414C43.6054 46.0078 44.5898 44.918 45.0351 43.9805C45.3866 43.2188 45.4101 43.1133 45.4101 41.7773C45.4101 40.4297 45.3984 40.3359 45.0351 39.5625C44.7655 39 44.414 38.5312 43.8515 37.9805L43.0546 37.1953L48.082 23.9414L53.1093 10.6875L54.3163 10.6406C55.4062 10.6055 55.582 10.5703 56.3905 10.1719C57.4921 9.62109 58.453 8.64844 58.9687 7.53516C59.2851 6.87891 59.3554 6.5625 59.3905 5.70703C59.5077 3.43359 58.453 1.58203 56.5195 0.609375C55.2773 -0.0117188 54.082 -0.140625 52.7343 0.210938ZM55.4648 2.48438C56.6249 2.98828 57.3866 4.3125 57.2695 5.63672C57.1171 7.39453 55.6523 8.64844 53.9179 8.53125C52.9804 8.46094 52.3476 8.15625 51.7499 7.5C50.9648 6.63281 50.707 5.60156 51.0234 4.54688C51.5976 2.55469 53.5312 1.66406 55.4648 2.48438ZM23.4843 24.0117C25.4413 25.1016 25.7109 27.7617 24.0116 29.2266C22.4413 30.5742 20.0624 30.0703 19.0663 28.1953C18.703 27.5156 18.703 26.0391 19.0663 25.3594C19.4179 24.7031 20.3085 23.9414 20.9648 23.7305C21.7382 23.4844 22.746 23.5898 23.4843 24.0117ZM41.0976 38.7305C41.8007 38.9414 42.6796 39.6797 43.0312 40.3594C43.1718 40.6406 43.3007 41.1562 43.3359 41.6133C43.3827 42.2695 43.3476 42.4922 43.1015 43.0195C41.7538 45.9727 37.5585 45.457 36.9843 42.2695C36.7734 41.1211 37.4648 39.7031 38.5429 39.0586C39.4218 38.5312 40.1249 38.4375 41.0976 38.7305ZM7.41789 51.832C8.76555 52.6172 9.38664 54.0703 8.97648 55.4648C8.55461 56.9063 7.32414 57.8438 5.87101 57.8203C4.95695 57.8086 4.41789 57.5977 3.74992 57C3.07023 56.3906 2.78898 55.7695 2.71867 54.7852C2.6718 54.0352 2.70695 53.9062 3.07023 53.2031C3.48039 52.4062 4.1718 51.8086 4.96867 51.5625C5.62492 51.3633 6.83195 51.4922 7.41789 51.832Z" fill="#ED1C24"/>
</svg>
