<svg width="60" height="60" viewBox="0 0 60 60" fill="none" xmlns="http://www.w3.org/2000/svg">
<path d="M20.8595 0.128906C15.7267 0.703125 11.0275 3.01172 7.35948 6.75C5.48448 8.67188 4.35948 10.2539 3.22276 12.5977C2.06261 14.9648 1.27745 17.543 0.996202 19.9453C0.902452 20.7305 1.11339 21.2344 1.64073 21.5039C2.20323 21.7969 2.67198 21.7266 3.09386 21.293C3.4337 20.9531 3.4923 20.8125 3.60948 19.8633C4.03136 16.6406 5.27355 13.5 7.21886 10.7695C8.14464 9.45703 10.3595 7.26562 11.7189 6.30469C15.2931 3.77344 19.629 2.44922 23.8595 2.61328C25.6525 2.67188 26.0275 2.57812 26.3204 1.95703C26.7423 1.07812 26.2267 0.257812 25.1603 0.105469C24.3634 -0.0117188 21.9728 0 20.8595 0.128906Z" fill="#ED1C24"/>
<path d="M41.7194 0.0820351C33.61 0.949223 27.2585 7.58204 26.8835 15.5859C26.8132 16.957 26.8249 17.0742 27.0592 17.3672C27.1999 17.543 27.4928 17.7422 27.7155 17.8125C28.0671 17.9297 28.196 17.918 28.571 17.7305C29.1569 17.4375 29.4147 16.8984 29.4147 15.9258C29.4147 15.4922 29.4967 14.707 29.5905 14.168C30.5397 9.0586 34.1022 4.9336 39.0006 3.29297C40.571 2.75391 41.3327 2.64844 43.4772 2.66016C45.3053 2.66016 45.6452 2.69532 46.6647 2.96485C48.2116 3.375 49.6413 3.97266 50.8483 4.71094C52.196 5.54297 54.235 7.5586 55.1374 8.94141C58.7233 14.4844 57.9967 21.7734 53.3913 26.4258C51.3171 28.5117 48.7975 29.8359 45.8327 30.3984C45.2936 30.5039 44.5085 30.5859 44.0749 30.5859C43.1022 30.5859 42.5631 30.8438 42.2702 31.4297C42.0827 31.8047 42.071 31.9336 42.1881 32.2852C42.2585 32.5078 42.4577 32.8008 42.6335 32.9414C42.9264 33.1758 43.0436 33.1875 44.4147 33.1172C51.8092 32.7656 58.1491 27.2578 59.6608 19.8867C61.571 10.4648 54.9616 1.28907 45.4108 0.12891C44.4147 0.0117226 42.6217 -0.0117149 41.7194 0.0820351Z" fill="#ED1C24"/>
<path d="M42.7969 5.89453C42.3984 6.12891 42.1992 6.48047 42.0938 7.17188L42.0117 7.79297L41.2148 8.19141C40.1133 8.73047 39.2344 9.57422 38.7656 10.5234C38.4141 11.2383 38.3789 11.3906 38.3789 12.4219C38.3789 13.4414 38.4141 13.6055 38.7656 14.3438C39.0352 14.918 39.375 15.3867 39.9492 15.9375C40.6523 16.6289 40.9922 16.8516 42.6914 17.6836C44.8008 18.7148 45.5625 19.3125 45.8203 20.1094C46.4414 21.9844 43.9688 23.6133 42.0117 22.6172C41.5664 22.3945 41.3086 22.1484 40.957 21.5977C40.3945 20.7305 39.9492 20.4375 39.3398 20.5547C38.7891 20.6602 38.3203 21.2109 38.3203 21.7617C38.3203 22.3125 38.9063 23.3906 39.5508 24.0234C39.832 24.3047 40.5 24.75 41.0391 25.0078C41.8359 25.4062 42.0117 25.5469 42.0469 25.7812C42.1523 26.8359 42.6094 27.4219 43.3125 27.4219C44.1211 27.4219 44.6484 26.918 44.6484 26.1328C44.6484 25.5586 44.8242 25.3594 45.6445 24.9844C48.4805 23.6484 49.4063 19.9922 47.4609 17.7656C46.8867 17.1211 45.8438 16.418 44.0859 15.5273C41.6719 14.2969 41.0508 13.7695 40.9336 12.8906C40.7344 11.4258 41.8242 10.3125 43.4883 10.3125C44.5781 10.3125 45.4805 10.8281 45.9492 11.7422C46.4297 12.668 47.3438 12.9375 48.0352 12.3516C48.5625 11.9062 48.6211 11.3672 48.2344 10.582C47.6719 9.43359 46.6289 8.48438 45.4336 8.02734C44.8242 7.80469 44.6484 7.53516 44.6484 6.91406C44.6484 6.39844 44.1094 5.85938 43.5352 5.78906C43.2656 5.76562 42.9492 5.80078 42.7969 5.89453Z" fill="#ED1C24"/>
<path d="M18.6328 19.2305C13.5703 19.6758 8.61328 22.1484 5.26172 25.8867C2.77734 28.6758 0.960938 32.4024 0.28125 36.1524C0.117188 37.0313 0.0703125 37.8984 0.0703125 39.668C0.0703125 41.7422 0.105469 42.1758 0.386719 43.4883C1.28906 47.7774 3.1875 51.2578 6.22266 54.2109C9.86719 57.75 14.4961 59.7305 19.6289 59.9648C26.25 60.2578 32.7422 57.1641 36.7617 51.7969C41.3438 45.6914 42.1289 37.5 38.7773 30.6328C35.6016 24.1172 29.3672 19.875 22.0313 19.2188C20.5313 19.0899 20.2266 19.0899 18.6328 19.2305ZM22.0313 21.7969C26.7305 22.2891 30.6445 24.2813 33.8086 27.7969C35.8945 30.1055 37.4883 33.4336 38.0391 36.6211C38.3086 38.1797 38.3086 41.0391 38.0391 42.5039C36.6914 49.957 31.3008 55.5 23.8711 57.0938C22.2305 57.4336 19.0078 57.4688 17.2852 57.1406C13.5703 56.4492 10.5469 54.8555 7.85156 52.1484C5.14453 49.4531 3.55078 46.4297 2.85938 42.7148C2.53125 40.9922 2.56641 37.7695 2.90625 36.1289C4.11328 30.5039 7.57031 26.0156 12.5977 23.5547C15.5977 22.0781 18.8789 21.4688 22.0313 21.7969Z" fill="#ED1C24"/>
<path d="M15.75 27.2344L15.3516 27.6328V28.8516C15.3516 30.5508 15.3516 30.5508 13.6875 30.6094C12.668 30.6445 12.293 30.7031 12.0586 30.8555C11.3672 31.3125 11.3203 32.3203 11.9648 32.8594C12.3047 33.1406 12.3984 33.1641 13.6055 33.1641C15.5391 33.1641 15.3516 32.4844 15.3516 39.5273C15.3516 44.5664 15.3281 45.457 15.1758 45.668C15.0117 45.8906 14.8711 45.9258 13.582 45.9609L12.1641 45.9961L11.8242 46.3828C11.3555 46.9102 11.3555 47.543 11.8242 48.0703L12.1641 48.457L13.582 48.4922C15.375 48.5508 15.3516 48.5273 15.3516 50.2852C15.3516 51.4688 15.375 51.5625 15.6563 51.9023C16.043 52.3594 16.6523 52.4883 17.1563 52.2188C17.7656 51.8906 17.8594 51.6328 17.9063 50.1563C17.9414 49.0898 17.9883 48.7734 18.1406 48.668C18.2578 48.5625 18.75 48.5156 19.5234 48.5156C21.0703 48.5156 21.0938 48.5391 21.0938 50.2852C21.0938 51.7031 21.2344 52.0195 21.9727 52.2656C22.3242 52.3828 22.4531 52.3711 22.8281 52.1836C23.4961 51.8555 23.6719 51.3867 23.6719 49.9453C23.6719 48.5625 23.6133 48.6328 24.9844 48.4219C26.0508 48.2578 26.9414 47.8242 27.7148 47.0977C28.9219 45.9609 29.3555 44.8711 29.2734 43.1484C29.1914 41.4844 28.582 40.3008 27.293 39.3164C26.6133 38.8008 26.5898 38.625 27.0234 37.6758C27.4805 36.7031 27.5391 35.2617 27.1875 34.2305C26.6953 32.7539 25.875 31.8281 24.4453 31.1133L23.7305 30.7617L23.6719 29.2383C23.6367 28.3359 23.5547 27.6094 23.4609 27.457C23.1328 26.8711 22.4063 26.6719 21.7383 26.9766C21.2344 27.1992 21.0938 27.6328 21.0938 28.9102C21.0938 30.5625 21.0703 30.5859 19.4648 30.5859C18.5859 30.5859 18.1523 30.5391 18.0703 30.4336C18.0117 30.3633 17.9297 29.707 17.9063 29.0039C17.8594 27.6094 17.7188 27.2227 17.1563 26.9766C16.6172 26.7188 16.1836 26.8008 15.75 27.2344ZM23.1563 33.3398C25.4063 34.0078 25.4063 37.4766 23.1563 38.1445C22.3008 38.4023 18.5508 38.3906 18.1875 38.1328C17.9414 37.957 17.9297 37.8984 17.9297 35.7422C17.9297 33.5859 17.9414 33.5273 18.1875 33.3516C18.5508 33.0938 22.3008 33.082 23.1563 33.3398ZM25.2891 41.0742C26.2266 41.4727 26.707 42.2695 26.7188 43.4297C26.7188 44.332 26.3672 45.0352 25.6758 45.5273L25.1719 45.8789L21.7969 45.9141C19.5 45.9375 18.3281 45.9141 18.1641 45.8203C17.9414 45.7031 17.9297 45.5859 17.9297 43.4414C17.9297 41.8359 17.9648 41.1445 18.0703 41.0391C18.1758 40.9336 19.1016 40.8984 21.5273 40.8984C24.2578 40.8984 24.9258 40.9336 25.2891 41.0742Z" fill="#ED1C24"/>
<path d="M58.0433 33.75C57.8441 33.8672 57.6215 34.0664 57.5629 34.1836C57.5043 34.3008 57.4222 35.3203 57.3871 36.4453C57.3051 38.8711 57.0355 40.5234 56.3676 42.5391C53.8949 50.0742 47.5785 55.5 40.266 56.3789C39.1761 56.5078 39.0472 56.5547 38.7074 56.9063C38.2035 57.3984 38.1683 58.0547 38.6254 58.582C39.0238 59.0508 39.4222 59.1094 40.9222 58.8984C48.1058 57.8789 54.1293 53.4375 57.516 46.6875C59.0746 43.5703 59.8363 40.5 59.9652 36.7383C60.0472 34.4414 59.9418 34.0313 59.2386 33.7031C58.7347 33.457 58.5004 33.4688 58.0433 33.75Z" fill="#ED1C24"/>
</svg>
