<svg width="133" height="132" viewBox="0 0 133 132" fill="none" xmlns="http://www.w3.org/2000/svg">
<path d="M67.2012 0.843643C62.25 2.162 58.3828 6.11708 57.0645 11.1268C56.7715 12.2694 56.625 14.2909 56.625 17.5722C56.625 22.2597 56.625 22.3768 55.9805 22.6405C45.3457 26.9765 37.9043 32.2792 31.7813 39.8964C28.3242 44.203 27.5039 45.6093 27.5039 47.2499C27.5039 50.7362 31.166 52.9921 34.3008 51.3808C35.0039 51.0292 35.9121 50.0624 36.9082 48.6854C43.9688 38.578 54.2813 31.869 66.5273 29.3788C77.3672 27.1815 89.8184 29.3788 99.3984 35.1796C111.176 42.328 119.027 53.6952 121.547 67.3183C122.367 71.6835 122.309 79.6815 121.43 84.0468C120.551 88.5292 119.291 92.1913 117.24 96.3222C114.955 100.951 112.23 104.701 108.48 108.48C101.771 115.189 93.5977 119.525 84.0469 121.43C79.3887 122.367 71.3613 122.367 66.7324 121.43C63.5098 120.785 58.9688 119.379 56.1855 118.148C51.0879 115.922 46.8105 121.928 50.8242 125.707C52.2891 127.055 59.3789 129.633 64.6816 130.687C80.9707 134.027 98.1973 129.838 111.117 119.408C113.754 117.269 118.207 112.816 120.082 110.385C126.176 102.592 130.189 92.9823 131.654 82.8456C132.123 79.4765 132.123 71.9179 131.654 68.3436C128.871 47.953 115.746 31.1073 96.6152 23.3436L94.2715 22.4061L94.0957 16.869C93.9785 12.2108 93.8613 11.1268 93.334 9.83778C91.459 5.12099 88.0313 2.01552 83.3731 0.814346C81.0586 0.199112 69.4863 0.228409 67.2012 0.843643Z" fill="#ED1C24"/>
<path d="M97.2026 52.2011C96.851 52.3476 93.5112 54.9257 89.7319 57.914C85.9526 60.9023 82.7299 63.3046 82.5542 63.246C79.9467 62.0449 78.2182 61.5175 76.4311 61.4003C66.9975 60.6972 59.4096 69.6621 61.7534 78.7441C63.0717 83.7831 66.9975 87.6796 72.0659 88.998C79.3608 90.9023 87.0366 86.2441 88.9995 78.7441C89.5268 76.6054 89.5561 74.5839 89.0288 72.3574L88.6479 70.6874L95.4155 65.2382C99.1362 62.2206 102.417 59.4374 102.681 59.0273C103.941 57.123 103.384 54.1933 101.509 52.8456C100.513 52.1425 98.1401 51.791 97.2026 52.2011Z" fill="#ED1C24"/>
<path d="M12.5338 61.7225C10.5709 62.5721 9.45759 64.828 9.86774 67.0253C10.1314 68.4022 11.5963 70.0135 12.9146 70.3944C13.647 70.6288 19.0377 70.6874 29.1451 70.6288C43.9107 70.5409 44.2916 70.5116 45.0826 69.9256C46.6353 68.7831 47.1041 67.8456 47.1041 65.9999C47.1041 64.1542 46.6353 63.2167 45.0826 62.0741C44.2916 61.4588 43.9107 61.4588 28.8521 61.4003C16.4595 61.3417 13.2369 61.4003 12.5338 61.7225Z" fill="#ED1C24"/>
<path d="M3.15876 80.4725C1.19587 81.3221 0.0825888 83.578 0.492745 85.7753C0.756417 87.1522 2.22126 88.7635 3.53962 89.1444C4.27204 89.3788 11.0689 89.4374 24.4576 89.3788C43.94 89.2909 44.2916 89.2909 45.0826 88.6756C46.6353 87.5331 47.1041 86.5956 47.1041 84.7499C47.1041 82.9042 46.6353 81.9667 45.0826 80.8241C44.2916 80.2088 43.9693 80.2088 24.1646 80.1503C7.87556 80.0917 3.86189 80.1503 3.15876 80.4725Z" fill="#ED1C24"/>
<path d="M12.5338 99.2225C10.5709 100.072 9.45759 102.328 9.86774 104.525C10.1314 105.902 11.5963 107.514 12.9146 107.894C13.647 108.129 19.0377 108.187 29.1451 108.129C43.9107 108.041 44.2916 108.012 45.0826 107.426C46.6353 106.283 47.1041 105.346 47.1041 103.5C47.1041 101.654 46.6353 100.717 45.0826 99.5741C44.2916 98.9588 43.9107 98.9588 28.8521 98.9003C16.4595 98.8417 13.2369 98.9003 12.5338 99.2225Z" fill="#ED1C24"/>
</svg>
