<svg width="54" height="54" viewBox="0 0 54 54" fill="none" xmlns="http://www.w3.org/2000/svg">
<path d="M27.4805 0.9375C25.5 1.46484 23.9531 3.04688 23.4258 5.05078C23.3086 5.50781 23.25 6.31641 23.25 7.62891C23.25 9.50391 23.25 9.55078 22.9922 9.65625C18.7383 11.3906 15.7617 13.5117 13.3125 16.5586C11.9297 18.2812 11.6016 18.8438 11.6016 19.5C11.6016 20.8945 13.0664 21.7969 14.3203 21.1523C14.6016 21.0117 14.9648 20.625 15.3633 20.0742C18.1875 16.0312 22.3125 13.3477 27.2109 12.3516C31.5469 11.4727 36.5273 12.3516 40.3594 14.6719C45.0703 17.5312 48.2109 22.0781 49.2188 27.5273C49.5469 29.2734 49.5234 32.4727 49.1719 34.2188C48.8203 36.0117 48.3164 37.4766 47.4961 39.1289C46.582 40.9805 45.4922 42.4805 43.9922 43.9922C41.3086 46.6758 38.0391 48.4102 34.2188 49.1719C32.3555 49.5469 29.1445 49.5469 27.293 49.1719C26.0039 48.9141 24.1875 48.3516 23.0742 47.8594C21.0352 46.9688 19.3242 49.3711 20.9297 50.8828C21.5156 51.4219 24.3516 52.4531 26.4727 52.875C32.9883 54.2109 39.8789 52.5352 45.0469 48.3633C46.1016 47.5078 47.8828 45.7266 48.6328 44.7539C51.0703 41.6367 52.6758 37.793 53.2617 33.7383C53.4492 32.3906 53.4492 29.3672 53.2617 27.9375C52.1484 19.7812 46.8984 13.043 39.2461 9.9375L38.3086 9.5625L38.2383 7.34766C38.1914 5.48438 38.1445 5.05078 37.9336 4.53516C37.1836 2.64844 35.8125 1.40625 33.9492 0.925781C33.0234 0.679688 28.3945 0.691406 27.4805 0.9375Z" fill="#ED1C24"/>
<path d="M39.4803 21.4805C39.3396 21.5391 38.0037 22.5703 36.492 23.7656C34.9803 24.9609 33.6912 25.9219 33.6209 25.8984C32.5779 25.418 31.8865 25.207 31.1717 25.1602C27.3982 24.8789 24.3631 28.4648 25.3006 32.0977C25.8279 34.1133 27.3982 35.6719 29.4256 36.1992C32.3435 36.9609 35.4139 35.0977 36.199 32.0977C36.4099 31.2422 36.4217 30.4336 36.2107 29.543L36.0584 28.875L38.7654 26.6953C40.2537 25.4883 41.5662 24.375 41.6717 24.2109C42.1756 23.4492 41.9529 22.2773 41.2029 21.7383C40.8045 21.457 39.8553 21.3164 39.4803 21.4805Z" fill="#ED1C24"/>
<path d="M5.61389 25.2891C4.82874 25.6289 4.38343 26.5313 4.54749 27.4102C4.65296 27.9609 5.23889 28.6055 5.76624 28.7578C6.05921 28.8516 8.21546 28.875 12.2584 28.8516C18.1647 28.8164 18.317 28.8047 18.6334 28.5703C19.2545 28.1133 19.442 27.7383 19.442 27C19.442 26.2617 19.2545 25.8867 18.6334 25.4297C18.317 25.1836 18.1647 25.1836 12.1412 25.1602C7.18421 25.1367 5.89514 25.1602 5.61389 25.2891Z" fill="#ED1C24"/>
<path d="M1.86389 32.7891C1.07874 33.1289 0.633426 34.0312 0.797489 34.9102C0.902957 35.4609 1.48889 36.1055 2.01624 36.2578C2.30921 36.3516 5.02796 36.375 10.3834 36.3516C18.1764 36.3164 18.317 36.3164 18.6334 36.0703C19.2545 35.6133 19.442 35.2383 19.442 34.5C19.442 33.7617 19.2545 33.3867 18.6334 32.9297C18.317 32.6836 18.1881 32.6836 10.2662 32.6602C3.75061 32.6367 2.14514 32.6602 1.86389 32.7891Z" fill="#ED1C24"/>
<path d="M5.61389 40.2891C4.82874 40.6289 4.38343 41.5312 4.54749 42.4102C4.65296 42.9609 5.23889 43.6055 5.76624 43.7578C6.05921 43.8516 8.21546 43.875 12.2584 43.8516C18.1647 43.8164 18.317 43.8047 18.6334 43.5703C19.2545 43.1133 19.442 42.7383 19.442 42C19.442 41.2617 19.2545 40.8867 18.6334 40.4297C18.317 40.1836 18.1647 40.1836 12.1412 40.1602C7.18421 40.1367 5.89514 40.1602 5.61389 40.2891Z" fill="#ED1C24"/>
</svg>
