<svg width="42" height="56" viewBox="0 0 42 56" fill="none" xmlns="http://www.w3.org/2000/svg">
<path d="M28.453 1.00162C23.1566 1.72467 19.0261 5.79187 18.2127 11.0792C17.8873 13.1942 18.1675 14.803 19.2973 17.1981C20.9061 20.6055 24.1689 25.0252 28.7331 29.9962L29.9623 31.3338L30.8571 30.4029C31.3542 29.8877 32.1677 29.002 32.6738 28.4326C38.2594 22.0697 41.3957 16.9992 41.8476 13.5918C42.0284 12.2542 41.712 10.0308 41.1336 8.5666C39.8863 5.41226 37.3918 2.91772 34.2374 1.67044C33.4782 1.37218 32.1044 1.06489 31.1012 0.956427C29.9623 0.847969 29.5737 0.847969 28.453 1.00162ZM31.8604 7.05722C34.3007 7.87066 35.9004 9.96752 36.036 12.5253C36.1626 14.9747 34.8339 17.1981 32.5654 18.3098C30.9837 19.078 28.7603 19.0419 27.2238 18.2194C25.6511 17.3789 24.4852 15.8966 24.0965 14.2426C23.9158 13.4924 23.9158 12.0825 24.0875 11.3956C24.44 9.99464 25.4613 8.54852 26.6724 7.74412C28.1547 6.75896 30.1793 6.48781 31.8604 7.05722Z" fill="#ED1C24"/>
<path d="M6.58852 31.605C3.76859 32.0208 2.01518 34.8678 2.90093 37.6154C3.31668 38.9079 4.24762 39.893 5.61239 40.4715L6.10045 40.6794L14.0993 40.7245C21.9806 40.7697 22.1071 40.7697 22.5048 40.9595C23.0742 41.2216 23.6346 41.8634 23.8063 42.4508C23.9871 43.0474 23.9871 43.192 23.8063 43.8066C23.6255 44.4121 22.9296 45.1442 22.3602 45.316C22.089 45.3973 20.9502 45.4244 18.293 45.4244C16.2594 45.4244 14.506 45.4515 14.3885 45.4786C14.28 45.5148 14.1264 45.6504 14.0541 45.795C13.8914 46.1113 14.0089 46.4367 14.3433 46.5903C14.6144 46.7169 21.1852 46.7259 22.0258 46.6084C23.255 46.4277 24.2492 45.6775 24.7915 44.5387C25.0536 43.9964 25.0807 43.8427 25.0807 43.1197C25.0807 42.3966 25.0445 42.243 24.8005 41.7097C24.3396 40.7336 23.6888 40.1371 22.6585 39.7394C22.324 39.6128 21.3298 39.5857 14.3252 39.5496L6.3716 39.5044L5.85642 39.2604C5.1424 38.9259 4.573 38.3746 4.22051 37.6606C3.94936 37.1093 3.93128 37.0098 3.93128 36.1151C3.93128 35.2112 3.94032 35.1389 4.23858 34.5966C4.60915 33.9188 5.16952 33.3765 5.85642 33.0601L6.3716 32.8161L15.5635 32.7709C24.0684 32.7257 24.7734 32.7167 24.909 32.5721C25.1078 32.3732 25.1078 31.9033 24.909 31.7044C24.7734 31.5598 24.1136 31.5508 15.925 31.5417C11.0715 31.5327 6.8687 31.5598 6.58852 31.605Z" fill="#ED1C24"/>
<path d="M6.0556 44.2585C0.189802 46.0119 0 46.0842 0 46.509C0 46.8796 0.343452 47.0603 2.98261 48.0365C4.4468 48.5788 5.72119 49.0487 5.80253 49.0849C5.97426 49.1482 6.13694 49.5458 7.2848 52.7002C8.04401 54.7519 8.22477 55.0953 8.5863 55.0953C9.02917 55.0953 9.0834 54.9507 10.8459 49.0397C11.7858 45.8854 12.5631 43.2101 12.5631 43.0926C12.5631 42.8305 12.2558 42.5322 12.0027 42.5412C11.8852 42.5412 9.20994 43.3185 6.0556 44.2585Z" fill="#ED1C24"/>
</svg>
