<svg width="76" height="82" viewBox="0 0 76 82" fill="none" xmlns="http://www.w3.org/2000/svg">
<path d="M37.1222 1.0434C34.2578 1.5978 32.7332 4.6932 34.0422 7.2958C34.458 8.0966 35.2896 8.9282 35.8286 9.113C36.1058 9.19 36.152 9.344 36.1674 10.2372C36.1828 10.807 36.2444 12.4086 36.2906 13.81L36.383 16.351H37.692C38.4158 16.351 39.1242 16.2894 39.2782 16.2432C39.5092 16.1354 39.54 15.8274 39.54 12.7474V9.3594L39.9712 9.1284C41.8654 8.1428 42.7432 5.5864 41.8654 3.5536C41.08 1.7518 39.0472 0.658399 37.1222 1.0434Z" fill="#ED1C24"/>
<path d="M32.9177 20.6938C30.2689 21.1404 27.5585 23.1116 26.3111 25.4986C25.2177 27.593 25.0483 28.9636 25.5103 31.828C25.8953 34.0918 26.0339 40.4982 25.8337 45.996C25.7259 48.999 25.6335 51.9096 25.6181 52.464L25.6027 53.465L28.5287 53.5112C30.5461 53.542 31.5933 53.4958 31.9013 53.3572C32.1477 53.2648 32.5481 52.8644 32.7791 52.4794C33.2103 51.8018 33.2257 51.7248 33.2257 49.7844C33.2257 48.6756 33.2719 46.5812 33.3335 45.1336L33.4259 42.5002L34.3653 42.8852C35.0737 43.1778 35.6743 43.2856 36.8447 43.3472C38.1999 43.4088 38.5233 43.3626 39.5397 43.0238C40.6793 42.6388 40.6947 42.6388 40.9719 42.9314C41.5417 43.5474 43.6823 43.0392 45.3147 41.915C46.2233 41.299 47.6709 39.5588 48.2561 38.4038C49.2417 36.4788 49.5805 33.1986 49.2725 28.6556C49.1339 26.6228 49.1031 26.4226 48.6103 25.4986C47.9173 24.205 46.0693 22.3416 44.8219 21.6948C42.9739 20.7246 41.9883 20.586 37.3991 20.6014C35.1507 20.6168 33.1333 20.663 32.9177 20.6938ZM40.3867 29.7644C40.8641 30.7346 41.9729 31.8742 43.0355 32.4748L43.8517 32.9368V34.0456C43.8517 38.5886 40.1557 42.223 36.2749 41.53C33.1795 40.9602 30.9157 38.2498 30.5307 34.6924L30.4229 33.7222L31.3931 33.6452C34.1035 33.4296 37.1527 31.1042 38.7235 28.055L39.4473 26.669L39.7245 27.824C39.8785 28.4554 40.1711 29.3332 40.3867 29.7644Z" fill="#ED1C24"/>
<path d="M3.47468 25.4216C1.47268 25.9606 0.271484 27.5622 0.271484 29.6258C0.271484 33.445 4.81448 35.37 7.58648 32.7366L8.04848 32.3054L11.3133 33.1216C13.8389 33.753 14.6397 33.907 14.8245 33.7684C15.1017 33.5682 15.6253 31.1042 15.4251 30.904C15.3481 30.827 13.8543 30.3958 12.0987 29.9492C8.91088 29.133 8.91088 29.133 8.80308 28.671C8.54128 27.4082 7.44788 26.0992 6.24668 25.6064C5.44588 25.283 4.27548 25.1906 3.47468 25.4216Z" fill="#ED1C24"/>
<path d="M70.8031 25.2984C69.1245 25.6064 67.6461 26.9462 67.2457 28.517L67.0917 29.133L63.8423 29.9646C62.0713 30.4266 60.5775 30.8886 60.5313 30.9964C60.4081 31.3044 60.9625 33.5836 61.1935 33.7684C61.3629 33.907 62.1791 33.753 64.6739 33.1216L67.9387 32.3054L68.4469 32.7674C69.7097 33.8608 71.1727 34.215 72.7435 33.753C73.9601 33.4142 75.2537 32.136 75.5771 30.981C76.1931 28.7942 75.2999 26.6844 73.3749 25.7604C72.5587 25.3754 71.4961 25.1752 70.8031 25.2984Z" fill="#ED1C24"/>
<path d="M47.2397 45.6264C45.8537 45.7496 43.6053 46.1962 43.0663 46.4734C42.4041 46.8122 41.8189 47.459 41.5571 48.1674C41.0489 49.5072 40.7871 50 40.0171 51.078L39.1855 52.233L39.2163 57.7L39.2471 63.167L41.3569 63.1208C47.3167 62.9976 53.0147 62.2584 54.2929 61.4576L54.6317 61.242V55.8212C54.6317 51.2474 54.5855 50.2926 54.3853 49.615C53.8155 47.7978 52.1831 46.1346 50.7047 45.8574C49.7191 45.6572 48.1329 45.5648 47.2397 45.6264Z" fill="#ED1C24"/>
<path d="M21.7233 48.3368C20.8763 49.7382 20.8301 50.1848 20.8301 55.9136V61.1342L21.2151 61.4114C22.3085 62.2276 26.6821 62.8282 33.8893 63.167L35.8451 63.2594V58.8396V54.4198L35.0135 55.2976C34.4899 55.8212 33.8277 56.3294 33.2733 56.5912L32.3801 57.007H28.6841H24.9881L24.1565 56.545C22.3701 55.5594 21.7233 53.8962 22.1237 51.386C22.3547 49.9538 22.4933 47.536 22.3393 47.536C22.2623 47.536 21.9851 47.9056 21.7233 48.3368Z" fill="#ED1C24"/>
<path d="M11.2046 50.8624L7.73956 52.1868L6.83096 51.6324C5.35256 50.7392 3.81256 50.7084 2.36496 51.5246C-0.730437 53.2494 -0.484037 57.8386 2.76536 59.24C4.44396 59.9638 6.44596 59.548 7.66256 58.2236C8.34016 57.4844 8.52496 57.0994 8.80216 55.9444L8.97156 55.2052L12.5444 53.8654C14.5156 53.1416 16.225 52.4332 16.3636 52.2946C16.5792 52.079 16.5638 51.9404 16.1018 50.8316C15.6244 49.7228 15.5474 49.615 15.1316 49.5842C14.8698 49.5688 13.2066 50.1078 11.2046 50.8624Z" fill="#ED1C24"/>
<path d="M60.2535 50.0308C60.1457 50.308 59.9147 50.8624 59.7453 51.2628C59.4835 51.848 59.4681 52.0174 59.6221 52.233C59.7299 52.387 61.4393 53.1108 63.4259 53.85L67.0295 55.2052L67.2759 56.0984C67.5839 57.2534 67.8765 57.8078 68.5233 58.4238C70.2481 60.0716 73.0355 59.9638 74.7141 58.162C77.1473 55.5594 75.4687 51.2936 71.8959 50.9702C70.8179 50.8778 70.0017 51.0934 69.0623 51.7094L68.3231 52.1868L64.7965 50.8624C62.8407 50.1386 61.0697 49.538 60.8541 49.538C60.5615 49.538 60.4229 49.6612 60.2535 50.0308Z" fill="#ED1C24"/>
<path d="M36.492 66.5088C36.3534 66.6474 36.3072 67.633 36.3072 70.02V73.331L35.7528 73.639C34.5054 74.3166 33.5352 75.949 33.5352 77.412C33.5352 79.722 35.5064 81.724 37.7856 81.724C39.4488 81.724 40.727 81.0618 41.5586 79.7528C42.8214 77.7508 42.267 75.1174 40.3266 73.8392L39.5412 73.331V70.0662C39.5412 68.2798 39.495 66.709 39.4488 66.5704C39.3718 66.3702 39.0946 66.324 38.0166 66.324C37.185 66.324 36.5998 66.401 36.492 66.5088Z" fill="#ED1C24"/>
</svg>
