<svg width="141" height="150" viewBox="0 0 141 150" fill="none" xmlns="http://www.w3.org/2000/svg">
<path d="M68.6185 0.142956C63.2982 1.1727 60.4664 6.92213 62.8977 11.7562C63.67 13.2436 65.2147 14.7883 66.2158 15.1315C66.7307 15.2745 66.8165 15.5606 66.8451 17.2196C66.8737 18.278 66.9881 21.2528 67.0739 23.8558L67.2455 28.5754H69.6769C71.0213 28.5754 72.3371 28.461 72.6231 28.3752C73.0522 28.175 73.1094 27.6029 73.1094 21.8821V15.5892L73.9103 15.1601C77.4286 13.3294 79.059 8.58117 77.4286 4.80543C75.9698 1.45874 72.1941 -0.572147 68.6185 0.142956Z" fill="#ED1C24"/>
<path d="M60.8093 36.6419C55.8894 37.4715 50.8551 41.1328 48.5381 45.5664C46.5072 49.4566 46.1926 52.0024 47.0507 57.3227C47.7658 61.5275 48.0233 73.4268 47.6514 83.6385C47.4512 89.2163 47.2796 94.6225 47.251 95.6522L47.2224 97.5115L52.6571 97.5973C56.4043 97.6545 58.3494 97.5687 58.9214 97.3113C59.3791 97.1397 60.1228 96.3959 60.5519 95.6808C61.3528 94.4223 61.3814 94.2792 61.3814 90.6751C61.3814 88.6156 61.4672 84.7255 61.5816 82.0367L61.7532 77.1454L63.4981 77.8605C64.8139 78.404 65.9294 78.6042 68.1034 78.7186C70.6205 78.833 71.2212 78.7472 73.1091 78.1179C75.2258 77.4028 75.2544 77.4028 75.7693 77.9463C76.8276 79.0905 80.8036 78.1465 83.8356 76.0584C85.5233 74.9143 88.212 71.682 89.299 69.5367C91.1297 65.9612 91.759 59.8685 91.1869 51.4303C90.9294 47.6545 90.8722 47.2827 89.9569 45.5664C88.6697 43.1637 85.2372 39.7026 82.9203 38.5012C79.4878 36.6992 77.6571 36.4417 69.1331 36.4703C64.9569 36.4989 61.2098 36.5847 60.8093 36.6419ZM74.6823 53.4898C75.569 55.2918 77.6285 57.4085 79.6022 58.5241L81.1182 59.3822V61.4417C81.1182 69.8799 74.2532 76.6305 67.045 75.3433C61.2956 74.285 57.0908 69.2506 56.3757 62.6431L56.1754 60.841L57.9775 60.698C63.0118 60.2976 68.6754 55.9783 71.5931 50.3147L72.9375 47.7403L73.4523 49.8857C73.7384 51.0584 74.2818 52.6889 74.6823 53.4898Z" fill="#ED1C24"/>
<path d="M6.11762 45.4235C2.39909 46.4247 0.167969 49.3995 0.167969 53.2325C0.167969 60.3263 8.60618 63.9018 13.7549 59.0105L14.613 58.2096L20.6771 59.7256C25.3682 60.8984 26.8556 61.1844 27.1989 60.927C27.7137 60.5551 28.6863 55.9785 28.3144 55.6066C28.1714 55.4636 25.3968 54.6627 22.1359 53.8331C16.2149 52.3171 16.2149 52.3171 16.0146 51.459C15.5284 49.1135 13.4975 46.6821 11.2664 45.7668C9.77895 45.1661 7.60504 44.9945 6.11762 45.4235Z" fill="#ED1C24"/>
<path d="M131.174 45.1946C128.056 45.7667 125.31 48.2552 124.567 51.1729L124.281 52.317L118.245 53.8617C114.956 54.7198 112.181 55.5779 112.095 55.7781C111.866 56.3502 112.896 60.5836 113.325 60.9269C113.64 61.1843 115.156 60.8983 119.79 59.7255L125.854 58.2095L126.798 59.0676C129.143 61.0985 131.861 61.7564 134.778 60.8983C137.038 60.269 139.441 57.8948 140.041 55.7495C141.186 51.6877 139.527 47.769 135.951 46.0527C134.435 45.3376 132.461 44.9658 131.174 45.1946Z" fill="#ED1C24"/>
<path d="M87.4111 82.9519C84.8368 83.1807 80.6606 84.0103 79.6594 84.5251C78.4294 85.1544 77.3425 86.3558 76.8562 87.6716C75.9123 90.1601 75.426 91.0755 73.9958 93.0778L72.4512 95.2231L72.5084 105.378L72.5656 115.532L76.4844 115.446C87.5541 115.217 98.1377 113.844 100.512 112.357L101.141 111.956V101.888C101.141 93.3924 101.055 91.6189 100.683 90.3604C99.6251 86.9851 96.593 83.8958 93.847 83.381C92.0164 83.0091 89.0702 82.8375 87.4111 82.9519Z" fill="#ED1C24"/>
<path d="M40.0145 87.9862C38.4413 90.5892 38.3555 91.4187 38.3555 102.059V111.756L39.0706 112.271C41.1015 113.787 49.225 114.903 62.6118 115.532L66.2445 115.704V107.494V99.2849L64.6999 100.915C63.7273 101.888 62.4973 102.832 61.4676 103.318L59.8086 104.09H52.9436H46.0786L44.534 103.232C41.2159 101.402 40.0145 98.3123 40.7582 93.6498C41.1873 90.9897 41.4447 86.4988 41.1587 86.4988C41.0157 86.4988 40.5008 87.1853 40.0145 87.9862Z" fill="#ED1C24"/>
<path d="M20.4777 92.6773L14.0418 95.1373L12.3541 94.1075C9.60815 92.4485 6.74774 92.3913 4.05895 93.9073C-1.69047 97.111 -1.23281 105.635 4.80266 108.238C7.92051 109.582 11.639 108.81 13.8988 106.35C15.1574 104.977 15.5006 104.262 16.0155 102.117L16.3301 100.744L22.9663 98.2551C26.6276 96.9107 29.8027 95.5949 30.0601 95.3375C30.4606 94.9371 30.4319 94.6796 29.5738 92.6201C28.6871 90.5606 28.5441 90.3604 27.7718 90.3032C27.2855 90.2746 24.1963 91.2757 20.4777 92.6773Z" fill="#ED1C24"/>
<path d="M111.581 91.1327C111.38 91.6476 110.951 92.6773 110.637 93.421C110.151 94.508 110.122 94.8226 110.408 95.2231C110.608 95.5091 113.783 96.8535 117.473 98.2265L124.167 100.744L124.624 102.403C125.196 104.548 125.74 105.578 126.941 106.722C130.145 109.783 135.322 109.582 138.44 106.236C142.959 101.402 139.842 93.4782 133.205 92.8775C131.203 92.7059 129.687 93.1064 127.942 94.2505L126.569 95.1373L120.019 92.6773C116.386 91.3329 113.097 90.2174 112.696 90.2174C112.153 90.2174 111.895 90.4462 111.581 91.1327Z" fill="#ED1C24"/>
<path d="M67.4451 121.739C67.1877 121.997 67.1019 123.827 67.1019 128.261V134.411L66.0721 134.983C63.7552 136.241 61.9531 139.273 61.9531 141.991C61.9531 146.281 65.6145 150 69.8479 150C72.9371 150 75.3112 148.77 76.8559 146.339C79.2014 142.62 78.1717 137.729 74.5675 135.355L73.1087 134.411V128.347C73.1087 125.029 73.0229 122.111 72.9371 121.854C72.7941 121.482 72.2792 121.396 70.2769 121.396C68.7323 121.396 67.6453 121.539 67.4451 121.739Z" fill="#ED1C24"/>
</svg>
